<?xml version="1.0" standalone="no"?>
<!DOCTYPE svg PUBLIC "-//W3C//DTD SVG 1.1//EN" "http://www.w3.org/Graphics/SVG/1.1/DTD/svg11.dtd" >
<svg xmlns="http://www.w3.org/2000/svg" xmlns:xlink="http://www.w3.org/1999/xlink" version="1.1">
<metadata>
Created by FontForge 20170731 at Sat Mar 24 23:29:28 2018
 By Aleksey,,,
(C) Copyright 1991 The Monotype Corporaton plc. All Rights Reserved. 
</metadata>
<defs>
<font id="CalvertMT-Bold" horiz-adv-x="615" >
  <font-face 
    font-family="Calvert MT"
    font-weight="700"
    font-stretch="normal"
    units-per-em="1000"
    panose-1="0 0 0 0 0 0 0 0 0 0"
    ascent="750"
    descent="-250"
    x-height="535"
    cap-height="705"
    bbox="-143 -250 1133 985"
    underline-thickness="50"
    underline-position="-200"
    unicode-range="U+000D-FB02"
  />
<missing-glyph horiz-adv-x="278" 
 />
    <glyph glyph-name=".notdef" horiz-adv-x="278" 
 />
    <glyph glyph-name=".null" horiz-adv-x="0" 
 />
    <glyph glyph-name="nonmarkingreturn" horiz-adv-x="333" 
 />
    <glyph glyph-name="NULL" horiz-adv-x="0" 
 />
    <glyph glyph-name="NULL" horiz-adv-x="0" 
 />
    <glyph glyph-name="CR" unicode="&#xd;" horiz-adv-x="250" 
 />
    <glyph glyph-name="space" unicode=" " horiz-adv-x="278" 
 />
    <glyph glyph-name="exclam" unicode="!" horiz-adv-x="292" 
d="M93 191l-18 548h137l-14 -548h-105zM74 0v124h145v-124h-145z" />
    <glyph glyph-name="quotedbl" unicode="&#x22;" horiz-adv-x="417" 
d="M157 461h-91l-26 133v121h139v-121zM356 461h-91l-26 133v121h139v-121z" />
    <glyph glyph-name="numbersign" unicode="#" horiz-adv-x="668" 
d="M38 404v93h151l41 187h92l-41 -187h173l40 187h93l-40 -187h82v-93h-100l-31 -147h131v-93h-148l-41 -185h-92l40 185h-175l-38 -185h-93l39 185h-83v93h102l31 147h-133zM437 404h-174l-30 -147h173z" />
    <glyph glyph-name="dollar" unicode="$" 
d="M267 435v145q-34 -5 -49.5 -28t-15.5 -44q0 -53 65 -73zM362 262v-153q32 6 50.5 25t18.5 46q0 57 -68 83zM267 703v39h94v-39q99 -12 145.5 -79t50.5 -154h-129q-2 43 -17.5 67t-49.5 38v-176q36 -14 57 -22.5t53 -28t49.5 -39.5t31 -52t13.5 -71q0 -55 -29.5 -100.5
t-81.5 -71.5q-30 -17 -92 -28v-68h-94v69q-102 12 -159 71.5t-61 157.5h130q4 -55 25 -81t65 -31v191q-14 6 -20 8q-30 11 -46.5 17.5t-46 24t-45.5 36t-29 50t-13 70.5q0 15 3 33.5t15.5 46.5t32.5 51.5t58.5 43.5t89.5 27z" />
    <glyph glyph-name="percent" unicode="%" horiz-adv-x="969" 
d="M245 663q-33 0 -52.5 -29.5t-19.5 -79.5q0 -113 72 -113q32 0 50.5 29t18.5 81t-18.5 82t-50.5 30zM245 -34l398 778h80l-399 -778h-79zM723 268q-34 0 -52 -29.5t-17 -83.5q0 -52 18.5 -80t52.5 -28q32 0 51.5 29.5t19.5 78.5q-2 113 -73 113zM241 744q78 0 127 -52
t49 -135q0 -89 -48.5 -143t-127.5 -54t-125 53t-46 144q0 82 48 134.5t123 52.5zM720 349q79 0 129 -52t50 -133q0 -92 -48 -145t-131 -53q-15 0 -33.5 4t-43.5 16.5t-44.5 32.5t-33.5 56.5t-14 83.5q0 84 47.5 137t121.5 53z" />
    <glyph glyph-name="ampersand" unicode="&#x26;" horiz-adv-x="688" 
d="M255 460q77 42 77 85q0 27 -18 44t-47 17q-25 0 -41.5 -19t-16.5 -48q0 -37 46 -79zM386 124l-154 177q-56 -37 -56 -95q0 -45 35.5 -79.5t81.5 -34.5q40 0 93 32zM659 6l-3 -5q-59 -18 -99 -18q-34 0 -48.5 8t-52.5 44q-62 -34 -94.5 -45.5t-81.5 -11.5
q-100 0 -171 68.5t-71 165.5q0 56 27 99t88 84q-37 41 -52 73t-15 70q0 73 55 121.5t137 48.5q78 0 128.5 -47.5t50.5 -121.5q0 -35 -12.5 -64.5t-35.5 -51.5t-37.5 -32.5t-36.5 -23.5l127 -147q22 48 19 126l163 4l2 -111l-62 -2q-9 -56 -44 -108q13 -16 20.5 -21.5
t24.5 -5.5q28 1 56 8z" />
    <glyph glyph-name="quotesingle" unicode="'" horiz-adv-x="292" 
d="M196 461h-96l-26 133v121h144v-121z" />
    <glyph glyph-name="parenleft" unicode="(" horiz-adv-x="375" 
d="M203 718l12 19h123q-86 -146 -121.5 -239t-35.5 -217q0 -126 26.5 -216.5t117.5 -234.5l15 -24h-124q-36 54 -58.5 91.5t-55 102t-49 132t-16.5 134.5q0 46 4 78.5t18.5 87.5t50 125.5t93.5 160.5z" />
    <glyph glyph-name="parenright" unicode=")" horiz-adv-x="375" 
d="M159 -194h-124l15 24q91 144 117.5 234.5t26.5 216.5q0 124 -35.5 217t-121.5 239h123l12 -19q58 -90 93.5 -160.5t50 -125.5t18.5 -87.5t4 -78.5q0 -67 -16.5 -134.5t-49 -132t-55 -102t-58.5 -91.5z" />
    <glyph glyph-name="asterisk" unicode="*" horiz-adv-x="531" 
d="M268 599l69 146l87 -50l-91 -134l160 12v-103l-163 15l91 -137l-85 -49l-70 149l-68 -152l-89 54l95 135l-166 -14v102l162 -12l-91 134l87 50z" />
    <glyph glyph-name="plus" unicode="+" horiz-adv-x="667" 
d="M61 278v105h219v220h105v-220h220v-105h-220v-218h-105v218h-219z" />
    <glyph glyph-name="comma" unicode="," horiz-adv-x="292" 
d="M141 0h-69v144h145v-146q0 -53 -35.5 -92t-107.5 -37l-1 49q43 8 55 23t13 59z" />
    <glyph glyph-name="hyphen" unicode="-" horiz-adv-x="365" 
d="M54 215v112h257v-112h-257z" />
    <glyph glyph-name="period" unicode="." horiz-adv-x="292" 
d="M74 0v144h144v-144h-144z" />
    <glyph glyph-name="slash" unicode="/" horiz-adv-x="469" 
d="M39 -183l288 929h104l-285 -929h-107z" />
    <glyph glyph-name="zero" unicode="0" 
d="M309 595q-67 0 -99 -60t-32 -184q0 -239 131 -239q128 0 128 225q0 258 -128 258zM311 721h-2q121 0 200 -97t79 -274q0 -168 -73 -266t-204 -98t-207.5 98.5t-76.5 265.5q0 178 80.5 276.5t203.5 94.5z" />
    <glyph glyph-name="one" unicode="1" 
d="M178 617l105 91h124v-594h69v-114h-282v115h69v430l-85 -74v146z" />
    <glyph glyph-name="two" unicode="2" 
d="M552 174v-174h-493v114l276 274q40 40 55 64.5t15 51.5q0 40 -28 66.5t-72 26.5q-108 0 -113 -140h-142q3 78 21 121q25 59 85.5 101.5t145.5 42.5q107 0 177.5 -59t70.5 -147q0 -54 -28 -99t-104 -115l-205 -189h215v61h124z" />
    <glyph glyph-name="three" unicode="3" horiz-adv-x="611" 
d="M58 524v184h503v-132l-154 -135q73 -3 120.5 -63t47.5 -137q0 -107 -76.5 -182t-185.5 -75q-122 0 -193.5 66.5t-84.5 190.5h140q9 -61 42 -96t86 -35q52 0 89 35.5t37 85.5q0 48 -31 81t-75 33q-22 0 -57 -13l-70 80l204 179h-219v-67h-123z" />
    <glyph glyph-name="four" unicode="4" 
d="M28 306l323 399h169l-330 -403h165v108l135 166v-274h92v-109h-91v-78h56v-115h-248v114h57v79h-328v113z" />
    <glyph glyph-name="five" unicode="5" 
d="M49 297l24 411h471v-162h-126v52h-215l-8 -160q47 33 77 45t67 12q96 0 164.5 -72t68.5 -173q0 -116 -77.5 -189t-201.5 -73t-196 89q-41 49 -56 115h154q27 -81 112 -81q50 0 83.5 40t33.5 99q0 55 -34 90t-87 35q-81 0 -116 -78h-138z" />
    <glyph glyph-name="six" unicode="6" 
d="M317 367q-47 0 -80.5 -36.5t-33.5 -88.5q0 -54 33.5 -92t80.5 -38q50 0 81.5 36.5t31.5 94.5q0 56 -31 90t-82 34zM566 530h-144q-26 71 -95 71q-38 0 -68.5 -24t-47.5 -68q-15 -41 -15 -102q66 78 154 78q98 0 161 -69t63 -177q0 -109 -72 -179.5t-185 -70.5
q-122 0 -197.5 95.5t-75.5 249.5q0 186 74 286t212 100q102 0 173 -65q53 -48 63 -125z" />
    <glyph glyph-name="seven" unicode="7" 
d="M44 491v218h527v-115l-227 -479h56v-115h-275v114h57l239 479h-254v-102h-123z" />
    <glyph glyph-name="eight" unicode="8" 
d="M305 598q-47 0 -76 -25t-29 -66q0 -37 30.5 -62.5t74.5 -25.5q50 0 79.5 24.5t29.5 64.5q0 38 -31.5 64t-77.5 26zM303 313q-54 -1 -85.5 -28.5t-31.5 -72.5q0 -41 34.5 -71.5t81.5 -30.5q58 0 92.5 27.5t34.5 74.5q0 42 -31.5 71.5t-94.5 29.5zM471 372
q54 -30 79.5 -67.5t25.5 -93.5q0 -101 -74.5 -163t-195.5 -62q-117 0 -192 62.5t-75 160.5q0 115 106 164q-86 54 -86 144q0 91 67.5 147t176.5 56q112 0 182 -55t70 -143q0 -50 -18.5 -83t-65.5 -67z" />
    <glyph glyph-name="nine" unicode="9" 
d="M294 598q-49 0 -82.5 -37.5t-33.5 -92.5t31.5 -91.5t78.5 -36.5q50 0 84.5 37t34.5 92q0 52 -33.5 90.5t-79.5 38.5zM42 178h146q17 -38 38.5 -54t56.5 -16q52 0 92 44t39 151q-64 -80 -156 -80q-97 0 -159 70t-62 179q0 102 73.5 175t176.5 73q107 0 180 -71
q97 -96 97 -295q0 -167 -76.5 -266.5t-204.5 -99.5q-99 0 -168 57q-57 50 -73 133z" />
    <glyph glyph-name="colon" unicode=":" horiz-adv-x="292" 
d="M75 391v144h143v-144h-143zM74 0v144h143v-144h-143z" />
    <glyph glyph-name="semicolon" unicode=";" horiz-adv-x="292" 
d="M74 391v144h143v-144h-143zM73 0v144h144v-140q0 -92 -76 -125q-23 -10 -67 -11v51q37 2 52.5 19.5t17.5 61.5h-71z" />
    <glyph glyph-name="less" unicode="&#x3c;" horiz-adv-x="667" 
d="M605 170v-114l-543 227v94l543 227v-113l-400 -161z" />
    <glyph glyph-name="equal" unicode="=" horiz-adv-x="667" 
d="M62 395v105h543v-105h-543zM62 162v105h543v-105h-543z" />
    <glyph glyph-name="greater" unicode="&#x3e;" horiz-adv-x="667" 
d="M62 491v113l543 -226v-95l-543 -227v114l400 160z" />
    <glyph glyph-name="question" unicode="?" horiz-adv-x="552" 
d="M173 526h-134q8 66 26 103q59 122 212 122q105 0 172 -59t67 -152q0 -101 -75 -161q-34 -27 -101 -45v-143h-129v217q53 2 84 11.5t55 31.5q32 32 32 79q0 46 -29 76.5t-73 30.5q-46 0 -71.5 -26.5t-35.5 -84.5zM205 0v123h141v-123h-141z" />
    <glyph glyph-name="at" unicode="@" horiz-adv-x="975" 
d="M740 517l-74 -350q-7 -33 -7 -43q0 -24 19 -24q46 0 109 76.5t63 180.5q0 127 -90.5 204t-239.5 77q-97 0 -172.5 -30t-118.5 -74t-71 -102t-37.5 -107t-9.5 -96q0 -162 110.5 -255.5t302.5 -93.5q232 0 336 129h103q-52 -106 -162.5 -162.5t-265.5 -56.5
q-247 0 -380 120.5t-133 324.5q0 71 17.5 139t56.5 133t96 113.5t142 78t188 29.5q186 0 301 -104t115 -272q0 -144 -95 -248t-227 -104q-76 0 -90 56q-58 -56 -133 -56q-84 0 -135.5 57.5t-51.5 151.5q0 50 17 104.5t48.5 103.5t83.5 80.5t115 31.5q86 0 129 -66l12 54h129
zM332 210q-1 -56 23 -88t64 -32q34 0 61.5 19t44 47.5t27.5 62.5t15.5 61t4.5 47q0 52 -25 83t-66 31q-62 0 -103.5 -65t-45.5 -166z" />
    <glyph glyph-name="A" unicode="A" horiz-adv-x="729" 
d="M459 261l-92 312l-94 -312h186zM86 115l196 590h169l194 -590h53v-115h-162l-46 153h-248l-46 -153h-164v115h54z" />
    <glyph glyph-name="B" unicode="B" horiz-adv-x="667" 
d="M354 590h-129v-171h139q45 0 73 25t28 65q0 35 -31 58t-80 23zM359 308h-134v-193h148q47 0 79.5 27.5t32.5 67.5q0 44 -34.5 71t-91.5 27zM28 590v115h269q156 0 199 -19q42 -18 75 -62t33 -108q0 -53 -20 -84t-71 -59q61 -25 89 -66t28 -110q0 -89 -62.5 -143
t-164.5 -54h-377v115h55v475h-53z" />
    <glyph glyph-name="C" unicode="C" horiz-adv-x="719" 
d="M548 242h145q-38 -131 -118.5 -196.5t-212.5 -65.5q-145 0 -236.5 103t-91.5 266t89 268.5t227 105.5q44 0 79 -8.5t59.5 -26t37 -30.5t29.5 -34v81h123v-244h-127q-18 47 -43 77q-54 62 -135 62q-87 0 -135 -66t-48 -185q0 -114 50 -180t136 -66q76 0 128 58
q25 29 44 81z" />
    <glyph glyph-name="D" unicode="D" horiz-adv-x="729" 
d="M233 115h121q89 0 138 60.5t49 168.5q0 135 -63 194q-54 52 -153 52h-92v-475zM35 590v115h315q163 0 255 -94t92 -260q0 -163 -82 -256q-85 -95 -252 -95h-329v115h55v475h-54z" />
    <glyph glyph-name="E" unicode="E" horiz-adv-x="625" 
d="M28 590v115h540v-221h-118v106h-222v-169h221v-115h-221v-191h229v118h125v-233h-555v115h57v475h-56z" />
    <glyph glyph-name="F" unicode="F" horiz-adv-x="604" 
d="M30 590v115h542v-218h-117v103h-221v-169h220v-114h-220v-192h78v-115h-281v115h59v475h-60z" />
    <glyph glyph-name="G" unicode="G" horiz-adv-x="750" 
d="M553 0v84q-22 -28 -41.5 -47t-61.5 -38t-91 -19q-140 0 -229.5 105t-89.5 270q0 158 90.5 262.5t227.5 104.5q41 0 73.5 -9t57 -28t34.5 -29.5t28 -32.5v82h120v-224h-122q-58 120 -171 120q-82 0 -132.5 -71t-50.5 -186q0 -108 51 -174t134 -66q93 0 142 83q17 28 28 74
h-153v116h286v-377h-130z" />
    <glyph glyph-name="H" unicode="H" horiz-adv-x="708" 
d="M27 591v114h256v-114h-55v-168h255v168h-56v114h255v-114h-55v-476h55v-115h-254v115h55v191h-255v-191h56v-115h-257v115l57 1v475h-57z" />
    <glyph glyph-name="I" unicode="I" horiz-adv-x="313" 
d="M30 590v115h254v-115h-54v-475h55v-115h-256v115h57v475h-56z" />
    <glyph glyph-name="J" unicode="J" horiz-adv-x="385" 
d="M99 590v115h257v-115h-55v-464q0 -79 -31 -108.5t-113 -29.5q-23 0 -124 10v117h64q31 0 45 17.5t14 55.5v402h-57z" />
    <glyph glyph-name="K" unicode="K" horiz-adv-x="677" 
d="M35 590v115h252v-115h-53v-171l257 286h120v-115h-56l-153 -165l194 -310h55v-115h-148l-196 325l-73 -81v-129h53v-115h-251v115h54v475h-55z" />
    <glyph glyph-name="L" unicode="L" horiz-adv-x="583" 
d="M28 590v115h254v-115h-55v-475h193v117h125v-232h-518v115h56v475h-55z" />
    <glyph glyph-name="M" unicode="M" horiz-adv-x="865" 
d="M30 590v115h266l71 -256l68 -259l66 263l68 252h266v-115h-56v-475h56v-115h-184v452l3 133l1 31l-173 -616h-96l-178 629l8 -210v-419h-186v115h55v475h-55z" />
    <glyph glyph-name="N" unicode="N" horiz-adv-x="792" 
d="M520 590v115h242v-115h-56v-590h-194l-296 534v-419h55v-115h-240v115h57v475h-56v115h244l302 -546v431h-58z" />
    <glyph glyph-name="O" unicode="O" horiz-adv-x="750" 
d="M378 599q-87 0 -136 -62.5t-49 -174.5q0 -148 63 -210q49 -49 122 -49q64 0 115 49q64 61 64 210q0 113 -46.5 175t-132.5 62zM374 723q86 0 152.5 -31.5t106.5 -85.5t60 -118.5t20 -136.5q0 -169 -93 -270t-248 -101q-149 0 -242 104.5t-93 273.5q0 151 92 258t245 107z
" />
    <glyph glyph-name="P" unicode="P" 
d="M320 590h-90v-214h96q52 0 85 30t33 77q0 49 -33.5 78t-90.5 29zM29 590v115h334q100 0 162.5 -63t62.5 -164q0 -96 -64 -157t-165 -61h-129v-145h55v-115h-255v115h56v475h-57z" />
    <glyph glyph-name="Q" unicode="Q" horiz-adv-x="750" 
d="M378 599q-87 0 -136 -62.5t-49 -174.5q0 -148 63 -210q49 -49 122 -49q64 0 115 49q64 61 64 210q0 113 -46.5 175t-132.5 62zM690 -24l8 -116q-72 -12 -110 -12q-81 0 -149.5 31.5t-156.5 112.5q-112 29 -178.5 127t-66.5 239q0 151 92 258t245 107q86 0 152.5 -31.5
t106.5 -85.5t60 -118.5t20 -136.5q0 -135 -61 -228.5t-168 -126.5q42 -27 83 -27q39 0 104 5z" />
    <glyph glyph-name="R" unicode="R" horiz-adv-x="677" 
d="M333 590h-94v-180h113q54 0 84.5 25t30.5 69q0 86 -134 86zM37 590v115h325q77 0 129.5 -20t76 -53t32 -61.5t8.5 -59.5q0 -110 -97 -152q53 -27 73.5 -68.5t20.5 -139.5v-36h58v-115h-198v177q0 125 -126 125h-100v-187h49v-115h-252v115h59v475h-58z" />
    <glyph glyph-name="S" unicode="S" horiz-adv-x="625" 
d="M32 234h116q50 -126 176 -126q58 0 94.5 26.5t36.5 67.5q0 22 -9.5 38.5t-21.5 25.5t-38 16t-42.5 10t-51.5 7q-53 6 -81 11.5t-65 23t-64 46.5q-50 55 -50 132q0 85 66 145t158 60q52 0 94 -16.5t60 -31.5t39 -39v75h112v-210h-109q-12 22 -21.5 35t-29.5 33t-49.5 30
t-67.5 10q-47 0 -80.5 -24.5t-33.5 -59.5q0 -37 30 -53t114 -24q114 -13 171 -44q44 -25 70.5 -61.5t34 -65t7.5 -57.5q0 -96 -69.5 -162.5t-169.5 -66.5q-54 0 -100.5 19t-65 35t-43.5 41v-80h-117v234z" />
    <glyph glyph-name="T" unicode="T" horiz-adv-x="625" 
d="M31 429v276h563v-276h-117v161h-92v-475h65v-115h-274v115h64v475h-92v-161h-117z" />
    <glyph glyph-name="U" unicode="U" horiz-adv-x="760" 
d="M30 590v115h256v-115h-56v-329q0 -72 40.5 -113.5t107.5 -41.5q71 0 112 41t41 114v329h-55v115h254v-115h-55v-334q0 -122 -81 -199t-208 -77q-137 0 -218.5 78t-81.5 209v323h-56z" />
    <glyph glyph-name="V" unicode="V" horiz-adv-x="729" 
d="M32 590v115h248v-115h-50l135 -452l137 452h-52v115h248v-115h-54l-193 -590h-170l-196 590h-53z" />
    <glyph glyph-name="W" unicode="W" horiz-adv-x="1021" 
d="M34 591v114h243v-114h-52l87 -446l121 560h158l110 -559l93 445h-51v114h245v-114h-54l-148 -591h-168l-106 540l-110 -540h-167l-148 591h-53z" />
    <glyph glyph-name="X" unicode="X" horiz-adv-x="646" 
d="M51 590v115h143l128 -217l128 217h143v-115h-51l-143 -226l162 -249h53v-115h-152l-139 241l-138 -241h-153v115h53l163 249l-144 226h-53z" />
    <glyph glyph-name="Y" unicode="Y" horiz-adv-x="625" 
d="M32 590v115h151l130 -268l130 268h151v-115h-51l-159 -304v-171h55v-115h-255v115h56v172l-156 303h-52z" />
    <glyph glyph-name="Z" unicode="Z" horiz-adv-x="594" 
d="M58 512v193h501v-115l-353 -475h235v81h124v-196h-539v114l363 476h-208v-78h-123z" />
    <glyph glyph-name="bracketleft" unicode="[" horiz-adv-x="365" 
d="M86 -181v906h258v-112h-122v-682h122v-112h-258z" />
    <glyph glyph-name="backslash" unicode="\" horiz-adv-x="469" 
d="M324 -183l-285 929h104l288 -929h-107z" />
    <glyph glyph-name="bracketright" unicode="]" horiz-adv-x="365" 
d="M21 613v112h258v-906h-256v112h120v682h-122z" />
    <glyph glyph-name="asciicircum" unicode="^" horiz-adv-x="584" 
d="M196 338h-140l184 390h109l179 -390h-139l-97 239z" />
    <glyph glyph-name="underscore" unicode="_" horiz-adv-x="500" 
d="M500 -125h-500v50h500v-50z" />
    <glyph glyph-name="grave" unicode="`" horiz-adv-x="333" 
d="M150 594l-155 146h169l80 -146h-94z" />
    <glyph glyph-name="a" unicode="a" horiz-adv-x="594" 
d="M384 201v52q-45 -4 -71 -7.5t-56 -10.5t-45 -16.5t-25.5 -25t-10.5 -37.5q0 -33 24 -53t64 -20q51 0 85.5 34t34.5 84zM509 359v-255h46v-104h-166v63q-41 -41 -77 -57.5t-85 -16.5q-80 0 -134.5 48t-54.5 119q0 33 11.5 59.5t27 44t46 32t54 22.5t66.5 15t68.5 9.5
t74.5 7.5q-1 62 -21 82.5t-78 20.5q-41 0 -67.5 -22t-28.5 -59l-130 4q5 80 65 128t155 48q111 0 169.5 -48.5t58.5 -140.5z" />
    <glyph glyph-name="b" unicode="b" horiz-adv-x="635" 
d="M341 440q-61 0 -95 -45.5t-34 -128.5q0 -82 33 -125t96 -43q55 0 88 46.5t33 124.5q0 79 -32.5 125t-88.5 46zM34 634v104h182v-262q40 41 74.5 58t77.5 17q101 0 166 -78t65 -199q0 -129 -61.5 -208t-162.5 -79q-50 0 -84.5 15t-80.5 56v-58h-181v104h56v530h-51z" />
    <glyph glyph-name="c" unicode="c" horiz-adv-x="583" 
d="M422 197h132q-22 -99 -90.5 -154t-166.5 -55q-115 0 -188.5 79t-73.5 204q0 123 68.5 201.5t177.5 78.5q45 0 79.5 -16.5t71.5 -54.5v55h112v-197h-117q-20 52 -52 77q-31 25 -76 25q-57 0 -93 -45.5t-36 -116.5q0 -81 35.5 -129t96.5 -48q88 0 120 96z" />
    <glyph glyph-name="d" unicode="d" horiz-adv-x="635" 
d="M294 438q-56 -2 -88.5 -47t-32.5 -122q0 -76 34 -124.5t87 -48.5q51 0 86 35q43 43 43 142q0 71 -31.5 118t-97.5 47zM373 634v104h181v-634h49v-104h-180v60q-76 -73 -150 -73q-107 0 -171 77t-64 204q0 123 64.5 203t163.5 80q49 0 85.5 -17t71.5 -58v158h-50z" />
    <glyph glyph-name="e" unicode="e" horiz-adv-x="583" 
d="M169 334h233q-7 51 -36.5 78t-76.5 27q-44 0 -75.5 -28t-44.5 -77zM400 176h139q-18 -87 -85.5 -137.5t-165.5 -50.5q-113 0 -186.5 79t-73.5 202q0 122 74.5 202t186.5 80q64 0 117.5 -28.5t88.5 -80.5q23 -35 35 -75.5t14.5 -63t3.5 -61.5h-386q5 -48 21.5 -80.5
t39.5 -45t38 -16.5t30 -4q78 0 109 80z" />
    <glyph glyph-name="f" unicode="f" horiz-adv-x="333" 
d="M24 535h72v67q0 28 1 41.5t5 33t13.5 29t26 19.5t43 14t63.5 4q46 0 81 -6v-102q-26 1 -45.5 0.5t-32 -5t-18.5 -15.5t-6 -31v-49h87v-104h-87v-327h53v-104h-234v104h51v326h-73v105z" />
    <glyph glyph-name="g" unicode="g" horiz-adv-x="625" 
d="M298 435q-58 0 -92.5 -41.5t-34.5 -111.5q0 -72 30.5 -111t87.5 -39q54 0 89 43.5t35 110.5q0 64 -32.5 106.5t-82.5 42.5zM412 17v85q-66 -79 -162 -79q-94 0 -155 73.5t-61 187.5q0 116 62.5 189t162.5 73q70 0 153 -69v58h181v-104h-49v-412q0 -96 -68 -150t-189 -54
q-119 0 -183 55q-26 21 -39 45t-25 72h129q26 -70 116 -70q58 0 92.5 27.5t34.5 72.5z" />
    <glyph glyph-name="h" unicode="h" 
d="M24 634v104h186v-263q24 21 40.5 33.5t51.5 26.5t71 14q76 0 121.5 -45.5t45.5 -121.5v-278h49v-104h-180v362q0 36 -21 56.5t-58 20.5q-50 0 -85 -42.5t-35 -104.5v-188h49v-104h-234v104h54v530h-55z" />
    <glyph glyph-name="i" unicode="i" horiz-adv-x="292" 
d="M75 610v126h144v-126h-144zM36 431v104h182v-431h45v-104h-229v104h53v327h-51z" />
    <glyph glyph-name="j" unicode="j" horiz-adv-x="323" 
d="M102 614v125h143v-125h-143zM64 431v104h180v-591q0 -67 -32 -97t-105 -30q-40 0 -88 6v101h35q35 0 46.5 12t11.5 48v447h-48z" />
    <glyph glyph-name="k" unicode="k" horiz-adv-x="594" 
d="M27 634v104h180v-389l194 186h116v-104h-53l-93 -82l148 -245h44v-104h-124l-157 264l-75 -63v-97h55v-104h-229v104h43v530h-49z" />
    <glyph glyph-name="l" unicode="l" horiz-adv-x="292" 
d="M33 634v104h183v-634h51v-104h-234v104h52v530h-52z" />
    <glyph glyph-name="m" unicode="m" horiz-adv-x="875" 
d="M211 535v-63q43 45 75 61t78 16q45 0 74 -18.5t54 -64.5q21 22 35.5 35.5t51 30.5t75.5 17q65 0 105 -42t40 -110v-293h50v-104h-181v360q0 35 -15.5 55t-41.5 20q-41 0 -73.5 -44.5t-32.5 -100.5v-186h52v-104h-183v355q0 80 -56 80q-44 0 -76 -46.5t-31 -110.5v-174h52
v-104h-228v104h45v327h-46v104h177z" />
    <glyph glyph-name="n" unicode="n" 
d="M542 389v-285h49v-104h-180v358q0 38 -21 59t-58 21q-48 0 -84 -41t-36 -95v-198h49v-104h-230v104h50v327h-50v104h181v-68q21 22 36.5 36t51.5 30t76 16q71 0 118.5 -45.5t47.5 -114.5z" />
    <glyph glyph-name="o" unicode="o" horiz-adv-x="604" 
d="M305 551q110 0 186.5 -82t76.5 -200q0 -120 -75.5 -201t-187.5 -81q-116 0 -192.5 80t-76.5 202q0 121 77 201.5t192 80.5zM300 436q-56 0 -91 -45.5t-35 -119.5q0 -76 34.5 -122.5t91.5 -46.5q59 0 94 45.5t35 123.5q0 72 -36.5 118.5t-92.5 46.5z" />
    <glyph glyph-name="p" unicode="p" horiz-adv-x="635" 
d="M337 440q-48 0 -85 -39q-21 -21 -29 -50.5t-8 -81.5q0 -95 39 -135q39 -37 83 -37q57 0 91 45.5t34 121.5q0 82 -33.5 129t-91.5 47zM214 535v-54q67 70 158 70q101 0 164.5 -79.5t63.5 -206.5q0 -121 -65.5 -199.5t-166.5 -78.5q-46 0 -81 17t-73 58v-129h51v-104h-231
v104h48v498h-48v104h180z" />
    <glyph glyph-name="q" unicode="q" horiz-adv-x="635" 
d="M294 96q50 0 84 34q44 43 44 141q0 97 -39 136q-34 34 -85 34q-59 0 -92 -46t-33 -127q0 -77 33.5 -124.5t87.5 -47.5zM422 -67v130q-63 -76 -163 -76q-97 0 -159.5 81t-62.5 208q0 120 64 197.5t162 77.5q45 0 79 -15t80 -56v55h180v-104h-49v-498h50v-104h-231v104h50z
" />
    <glyph glyph-name="r" unicode="r" horiz-adv-x="417" 
d="M207 535v-83q26 51 57.5 73.5t76.5 22.5q24 0 60 -7v-125q-34 7 -65 7q-53 0 -91 -32.5t-38 -78.5v-208h64v-104h-247v104h52v327h-51v104h182z" />
    <glyph glyph-name="s" unicode="s" horiz-adv-x="521" 
d="M34 190h101q25 -51 55 -74q33 -24 78 -24q43 0 70.5 19t27.5 48q0 30 -24 42.5t-93 20.5q-111 11 -154 44q-61 46 -61 119q0 69 52.5 115.5t131.5 46.5q43 0 77 -15.5t69 -51.5v55h104v-166h-104q-30 85 -121 85q-41 0 -65.5 -16t-24.5 -43q0 -25 21.5 -34t101.5 -17
q216 -23 216 -181q0 -74 -54 -123t-136 -49q-45 0 -82 15.5t-50.5 28t-32.5 33.5v-68h-103v190z" />
    <glyph glyph-name="t" unicode="t" horiz-adv-x="344" 
d="M85 535v171h130v-171h105v-104h-105v-276q0 -56 63 -56h42v-99q-43 -7 -81 -7q-20 0 -31.5 0.5t-32.5 3t-34.5 9.5t-28 18t-21.5 29.5t-7 43.5v334h-66v104h67z" />
    <glyph glyph-name="u" unicode="u" 
d="M26 431v104h183v-346q0 -93 77 -93q48 0 85 42.5t37 97.5v195h-52v104h183v-431h49v-104h-177v65q-32 -26 -50.5 -39.5t-52 -26t-70.5 -12.5q-77 0 -118.5 45.5t-41.5 128.5v270h-52z" />
    <glyph glyph-name="v" unicode="v" horiz-adv-x="583" 
d="M345 431v104h215v-104h-47l-150 -431h-143l-152 431h-44v104h210v-104h-40l97 -295l94 295h-40z" />
    <glyph glyph-name="w" unicode="w" horiz-adv-x="833" 
d="M25 431v104h214v-104h-54l74 -315l88 419h138l89 -414l71 310h-52v104h215v-104h-46l-115 -431h-142l-89 372l-84 -372h-144l-118 431h-45z" />
    <glyph glyph-name="x" unicode="x" horiz-adv-x="521" 
d="M260 388l92 147h130v-104h-46l-103 -149l121 -178h42v-104h-133l-103 169l-100 -169h-135v104h46l117 177l-101 150h-48v104h133z" />
    <glyph glyph-name="y" unicode="y" horiz-adv-x="583" 
d="M338 431v104h221v-104h-46l-188 -558q-12 -36 -39.5 -49t-91.5 -13q-55 0 -84 5v108h72q22 0 32 11.5t20 47.5l4 13l-169 435h-45v104h224v-104h-47l97 -271l86 271h-46z" />
    <glyph glyph-name="z" unicode="z" horiz-adv-x="479" 
d="M55 361v174h398v-104l-271 -327h167v72h111v-176h-432v103l270 328h-132v-70h-111z" />
    <glyph glyph-name="braceleft" unicode="{" horiz-adv-x="389" 
d="M364 -197h-25q-57 0 -86 6t-54 23q-29 19 -43 51.5t-16 62t-2 92.5q0 100 -21.5 136t-85.5 39v118q70 3 88.5 44.5t18.5 147.5q0 40 2 64t8 52.5t19.5 44.5t35 30.5t55.5 20.5t81 6h26v-117q-64 0 -82 -12t-18 -59q0 -103 -11 -158.5t-27.5 -77.5t-53.5 -45
q54 -31 72.5 -85.5t19.5 -195.5q0 -46 18.5 -58.5t80.5 -12.5v-117z" />
    <glyph glyph-name="bar" unicode="|" horiz-adv-x="587" 
d="M241 -250v1000h106v-1000h-106z" />
    <glyph glyph-name="braceright" unicode="}" horiz-adv-x="389" 
d="M358 331v-118q-70 -3 -88.5 -44.5t-18.5 -147.5q0 -40 -2 -64t-8 -52.5t-19.5 -44.5t-35 -30.5t-55.5 -20.5t-81 -6h-26v117q62 0 81 12.5t19 58.5q0 141 18.5 195t72.5 86q-32 20 -48 39t-25 48q-18 51 -18 194q0 47 -18 59t-82 12v117h26q56 0 85 -6t55 -23
q29 -19 43 -51.5t16 -62t2 -92.5q0 -100 21 -136t86 -39z" />
    <glyph glyph-name="asciitilde" unicode="~" horiz-adv-x="667" 
d="M97 242h-34q4 94 45 138q37 40 94 40q58 0 187 -57q68 -30 97 -30q75 0 84 86h34q-3 -83 -40.5 -130.5t-100.5 -47.5q-33 0 -65.5 10t-120.5 48q-67 29 -100 29q-68 0 -80 -86z" />
    <glyph glyph-name="exclamdown" unicode="&#xa1;" horiz-adv-x="292" 
d="M77 -171l18 548h105l14 -548h-137zM74 443v124h145v-124h-145z" />
    <glyph glyph-name="cent" unicode="&#xa2;" horiz-adv-x="583" 
d="M354 430l-62 -327q5 -2 15 -2q89 0 120 96h132q-22 -99 -90.5 -154t-166.5 -55q-16 0 -31 3l-33 -175h-56l35 186q-82 26 -129.5 98t-47.5 171q0 123 68.5 201.5t177.5 78.5q21 0 34 -4l36 189h56l-39 -206q30 -14 64 -50v55h112v-197h-117q-27 69 -78 92zM240 122
l60 318q-55 -1 -90 -46.5t-35 -115.5q0 -113 65 -156z" />
    <glyph glyph-name="sterling" unicode="&#xa3;" 
d="M54 409h60q-24 74 -24 129q0 27 12 56t37 59t73 49t110 19q164 0 224 -138q17 -39 22 -104h-135q-5 119 -107 119q-43 0 -70.5 -30.5t-27.5 -78.5q0 -35 20 -80h119v-115h-93q3 -14 3 -32q0 -77 -47 -148h204v63h124v-177h-470v114q57 80 57 150q0 4 -2 30h-89v115z" />
    <glyph glyph-name="currency" unicode="&#xa4;" horiz-adv-x="667" 
d="M590 517l-63 -64q35 -59 35 -125t-37 -121l65 -63l-69 -69l-64 63q-56 -36 -125 -36q-65 0 -122 36l-63 -63l-70 69l64 64q-35 55 -35 124q0 57 35 121l-64 64l68 69l64 -64q59 37 129 37q69 0 120 -37l63 64zM204 331q0 -55 38 -93t92 -38t92 38.5t38 92.5t-38 92
t-91 38q-55 0 -93 -38t-38 -92z" />
    <glyph glyph-name="yen" unicode="&#xa5;" horiz-adv-x="625" 
d="M473 589l-47 -158h98l1 -67h-142v-84h142v-67h-142v-99h57v-114h-255v114h56v99h-139v67h139v84h-139v67h100l-47 158h-73v116h151l81 -268l79 268h151v-116h-71z" />
    <glyph glyph-name="brokenbar" unicode="&#xa6;" horiz-adv-x="587" 
d="M241 -175v350h106v-350h-106zM241 325v350h106v-350h-106z" />
    <glyph glyph-name="section" unicode="&#xa7;" horiz-adv-x="521" 
d="M270 208l52 -23q62 37 62 95q0 27 -22 45.5t-100 52.5l-49 21q-65 -40 -65 -93q0 -29 22.5 -47.5t99.5 -50.5zM38 -3h133q15 -82 91 -82q41 0 67 19.5t26 49.5q0 31 -20.5 47t-105.5 51q-40 16 -60 25t-50.5 27t-45.5 35t-26.5 43t-11.5 58q0 29 10.5 55t31 47.5t32.5 32
t32 24.5q-41 30 -59 60t-18 69q0 80 59 132.5t148 52.5q94 0 154 -60q23 -23 34 -47.5t16 -68.5h-127q-3 72 -76 72q-33 0 -54.5 -16.5t-21.5 -42.5q0 -21 15 -35t53 -29q130 -51 179 -90t49 -109q0 -59 -27 -94t-79 -71q19 -13 30 -22t29 -28t27.5 -45t9.5 -57
q0 -84 -61 -134.5t-162 -50.5t-162 56q-44 40 -59 126z" />
    <glyph glyph-name="dieresis" unicode="&#xa8;" horiz-adv-x="333" 
d="M-1 596v122h127v-122h-127zM206 596v122h128v-122h-128z" />
    <glyph glyph-name="copyright" unicode="&#xa9;" horiz-adv-x="738" 
d="M538 445l-79 -19q-26 68 -87 68q-46 0 -73.5 -35.5t-27.5 -96.5q0 -71 25 -108t72 -37q68 0 91 84l79 -27q-39 -127 -173 -127q-81 0 -130.5 57.5t-49.5 151.5q0 95 51.5 151t138.5 56q120 0 163 -118zM369 730q155 0 264.5 -110t109.5 -264q0 -155 -109.5 -264.5
t-264.5 -109.5t-265 109.5t-110 264.5t110 264.5t265 109.5zM369 656q-125 0 -213 -88t-88 -212t88 -212t213 -88q124 0 212 88t88 212t-87.5 212t-212.5 88z" />
    <glyph glyph-name="ordfeminine" unicode="&#xaa;" horiz-adv-x="385" 
d="M251 535q-85 -10 -110 -21.5t-25 -42.5q0 -19 16 -32.5t39 -13.5q83 0 80 110zM253 370v43q-47 -48 -100 -48q-55 0 -89.5 29.5t-34.5 76.5q0 28 11.5 48.5t26.5 32t46 20t53.5 12t65.5 8.5l19 3q0 39 -11.5 52t-44.5 13q-63 0 -67 -51l-84 4q3 50 41.5 80t99.5 30
q77 0 114 -36q31 -33 31 -85v-166h29v-66h-106z" />
    <glyph glyph-name="guillemotleft" unicode="&#xab;" horiz-adv-x="604" 
d="M40 268l162 268h119l-160 -268l160 -268h-120zM290 268l162 268h119l-160 -268l160 -268h-120z" />
    <glyph glyph-name="logicalnot" unicode="&#xac;" horiz-adv-x="667" 
d="M62 399v105h544v-343h-105v238h-439z" />
    <glyph glyph-name="registered" unicode="&#xae;" horiz-adv-x="738" 
d="M280 156h-81v397h189q64 0 98.5 -29.5t34.5 -83.5q0 -44 -29 -73.5t-78 -36.5q26 -10 40 -26t44 -68l47 -80h-99l-33 64q-31 58 -54 78.5t-58 20.5h-21v-163zM280 490v-108h65q51 0 71 12.5t20 44.5q0 51 -82 51h-74zM369 730q155 0 264 -109.5t109 -264.5t-109 -264.5
t-264 -109.5q-156 0 -265.5 109.5t-109.5 264.5t109.5 264.5t265.5 109.5zM369 657q-125 0 -213 -88.5t-88 -212.5t88 -212.5t213 -88.5q124 0 212 88t88 213t-88 213t-212 88z" />
    <glyph glyph-name="macron" unicode="&#xaf;" horiz-adv-x="333" 
d="M8 612v106h316v-106h-316z" />
    <glyph glyph-name="degree" unicode="&#xb0;" horiz-adv-x="400" 
d="M44 573q0 65 45.5 110t110.5 45t110.5 -45t45.5 -110t-45.5 -110.5t-110.5 -45.5q-64 0 -110 45.5t-46 110.5zM125 573q0 -31 22 -53t53 -22t53 22t22 53t-22 52.5t-53 21.5t-53 -21.5t-22 -52.5z" />
    <glyph glyph-name="plusminus" unicode="&#xb1;" horiz-adv-x="668" 
d="M62 365v105h219v220h105v-220h220v-105h-220v-219h-105v219h-219zM62 -29v105h544v-105h-544z" />
    <glyph glyph-name="twosuperior" unicode="&#xb2;" horiz-adv-x="406" 
d="M140 613h-98q3 65 43 99t116 34q69 0 110.5 -31t41.5 -81q0 -41 -38 -80q-11 -11 -71.5 -59.5t-64.5 -52.5h115v31h68v-105h-317v72l129 95q82 61 82 93q0 37 -53 37q-27 0 -41 -11.5t-22 -40.5z" />
    <glyph glyph-name="threesuperior" unicode="&#xb3;" horiz-adv-x="406" 
d="M44 629v106h317v-68l-95 -76q100 -9 100 -106q0 -58 -45.5 -92t-123.5 -34q-79 0 -117.5 30.5t-45.5 95.5h98q10 -28 23.5 -38t41.5 -10q31 0 51 15.5t20 40.5q0 21 -15.5 35t-39.5 14q-9 0 -23 -6l-46 52l98 77h-128v-36h-70z" />
    <glyph glyph-name="acute" unicode="&#xb4;" horiz-adv-x="333" 
d="M74 594l82 146h170l-157 -146h-95z" />
    <glyph glyph-name="mu" unicode="&#xb5;" horiz-adv-x="611" 
d="M67 -199v734h136v-252q0 -116 31 -154q26 -31 68 -31q32 0 57.5 21t33.5 54q9 36 9 109v253h136v-535h-127v62q-40 -75 -105 -75q-69 0 -103 75v-261h-136z" />
    <glyph glyph-name="paragraph" unicode="&#xb6;" horiz-adv-x="556" 
d="M306 589v-785h-119v511q-91 7 -141.5 59t-50.5 140q0 53 21 97t58 68q37 25 67.5 31t114.5 6h291v-127h-55v-785h-116v785h-70z" />
    <glyph glyph-name="periodcentered" unicode="&#xb7;" horiz-adv-x="323" 
d="M79 273v144h165v-144h-165z" />
    <glyph glyph-name="cedilla" unicode="&#xb8;" horiz-adv-x="333" 
d="M3 -197v59q52 -9 107 -9q72 0 72 40q0 34 -52 34q-33 0 -80 -8l15 58q49 11 87 11q70 0 108 -25t38 -72q0 -16 -8.5 -35t-20.5 -29q-41 -37 -144 -37q-52 0 -122 13z" />
    <glyph glyph-name="onesuperior" unicode="&#xb9;" horiz-adv-x="406" 
d="M119 681l72 55h68v-296h35v-72h-152v72h35v193l-58 -42v90z" />
    <glyph glyph-name="ordmasculine" unicode="&#xba;" horiz-adv-x="385" 
d="M196 723q70 0 118.5 -52t48.5 -127q0 -79 -47.5 -130.5t-119.5 -51.5q-75 0 -124 50t-49 127q0 82 48 133t125 51zM192 650q-36 0 -58.5 -29.5t-22.5 -78.5t22 -78t59 -29t60 29.5t23 76.5q0 48 -23 78.5t-60 30.5z" />
    <glyph glyph-name="guillemotright" unicode="&#xbb;" horiz-adv-x="604" 
d="M194 267l-160 269h120l160 -268l-161 -268h-120zM444 267l-160 269h120l160 -268l-161 -268h-120z" />
    <glyph glyph-name="onequarter" unicode="&#xbc;" horiz-adv-x="1000" 
d="M524 143l187 194h99l-184 -193h87v31l85 88v-119h76v-65h-76v-46h36v-65h-154v64h33v47h-189v64zM126 681l72 55h68v-296h35v-72h-152v72h35v193l-58 -42v90zM707 742l-394 -777h-81l395 777h80z" />
    <glyph glyph-name="onehalf" unicode="&#xbd;" horiz-adv-x="1000" 
d="M684 742l-395 -777h-81l396 777h80zM102 681l72 55h68v-296h35v-72h-152v72h35v193l-58 -42v90zM676 213h-97q5 133 159 133q68 0 109.5 -31t41.5 -81q0 -41 -38 -80q-11 -11 -71.5 -59.5t-64.5 -52.5h115v31h68v-105h-317v72l129 95q82 61 82 93q0 37 -53 37
q-27 0 -40.5 -11t-22.5 -41z" />
    <glyph glyph-name="threequarters" unicode="&#xbe;" horiz-adv-x="1000" 
d="M560 141l187 195h99l-184 -193h87v32l85 87v-119h76v-65h-76v-45h36v-65h-154v64h33v46h-189v63zM743 742l-395 -777h-80l395 777h80zM100 629v106h317v-68l-95 -76q100 -9 100 -106q0 -58 -45.5 -92t-123.5 -34q-79 0 -117.5 30.5t-45.5 95.5h98q10 -28 23.5 -38
t41.5 -10q31 0 51 15.5t20 40.5q0 21 -15.5 35t-39.5 14q-9 0 -23 -6l-46 52l98 77h-128v-36h-70z" />
    <glyph glyph-name="questiondown" unicode="&#xbf;" horiz-adv-x="552" 
d="M382 54h134q-8 -66 -26 -103q-59 -122 -212 -122q-105 0 -172 59t-67 152q0 101 75 161q34 27 101 45v143h129v-217q-53 -2 -84 -11.5t-55 -31.5q-32 -32 -32 -79q0 -46 29 -76.5t73 -30.5q46 0 71.5 26.5t35.5 84.5zM211 456v123h141v-123h-141z" />
    <glyph glyph-name="Agrave" unicode="&#xc0;" horiz-adv-x="729" 
d="M459 261l-92 312l-94 -312h186zM86 115l196 590h169l194 -590h53v-115h-162l-46 153h-248l-46 -153h-164v115h54zM328 764l-155 146h169l80 -146h-94z" />
    <glyph glyph-name="Aacute" unicode="&#xc1;" horiz-adv-x="729" 
d="M459 261l-92 312l-94 -312h186zM86 115l196 590h169l194 -590h53v-115h-162l-46 153h-248l-46 -153h-164v115h54zM292 764l82 146h170l-157 -146h-95z" />
    <glyph glyph-name="Acircumflex" unicode="&#xc2;" horiz-adv-x="729" 
d="M459 261l-92 312l-94 -312h186zM86 115l196 590h169l194 -590h53v-115h-162l-46 153h-248l-46 -153h-164v115h54zM184 764l112 140h141l108 -140h-121l-59 75l-60 -75h-121z" />
    <glyph glyph-name="Atilde" unicode="&#xc3;" horiz-adv-x="729" 
d="M459 261l-92 312l-94 -312h186zM86 115l196 590h169l194 -590h53v-115h-162l-46 153h-248l-46 -153h-164v115h54zM265 764h-76q-1 44 9.5 73.5t29 41t32 15.5t26.5 4q28 0 91 -27q39 -15 55 -15q30 0 31 42h77q2 -43 -8 -73t-27.5 -42t-32 -16.5t-29.5 -4.5q-29 0 -95 26
q-39 16 -53 16q-29 0 -30 -40z" />
    <glyph glyph-name="Adieresis" unicode="&#xc4;" horiz-adv-x="729" 
d="M459 261l-92 312l-94 -312h186zM86 115l196 590h169l194 -590h53v-115h-162l-46 153h-248l-46 -153h-164v115h54zM197 766v122h127v-122h-127zM404 766v122h128v-122h-128z" />
    <glyph glyph-name="Aring" unicode="&#xc5;" horiz-adv-x="729" 
d="M459 261l-92 312l-94 -312h186zM86 115l196 590h169l194 -590h53v-115h-162l-46 153h-248l-46 -153h-164v115h54zM247 867q0 49 34 83.5t83 34.5t83.5 -34.5t34.5 -83.5t-34.5 -83t-83.5 -34q-48 0 -82.5 34t-34.5 83zM314 868q0 -21 14.5 -36t35.5 -15t35.5 14.5
t14.5 35.5t-14.5 36t-35.5 15t-35.5 -14.5t-14.5 -35.5z" />
    <glyph glyph-name="AE" unicode="&#xc6;" horiz-adv-x="1021" 
d="M486 592h-66l-85 -189h151v189zM77 111l264 594h628v-218h-113v105h-227v-182h221v-113h-221v-184h230v117h120v-230h-493v296h-200l-131 -296h-121v111h43z" />
    <glyph glyph-name="Ccedilla" unicode="&#xc7;" horiz-adv-x="719" 
d="M548 242h145q-69 -238 -280 -258q95 -17 95 -93q0 -16 -8.5 -35t-20.5 -29q-41 -37 -144 -37q-52 0 -122 13v59q52 -9 107 -9q72 0 72 40q0 34 -52 34q-33 0 -80 -8l15 58q33 7 37 7q-125 17 -201.5 116.5t-76.5 248.5q0 163 89 268.5t227 105.5q44 0 79 -8.5t59.5 -26
t37 -30.5t29.5 -34v81h123v-244h-127q-18 47 -43 77q-54 62 -135 62q-87 0 -135 -66t-48 -185q0 -114 50 -180t136 -66q76 0 128 58q25 29 44 81z" />
    <glyph glyph-name="Egrave" unicode="&#xc8;" horiz-adv-x="625" 
d="M28 590v115h540v-221h-118v106h-222v-169h221v-115h-221v-191h229v118h125v-233h-555v115h57v475h-56zM296 764l-155 146h169l80 -146h-94z" />
    <glyph glyph-name="Eacute" unicode="&#xc9;" horiz-adv-x="625" 
d="M28 590v115h540v-221h-118v106h-222v-169h221v-115h-221v-191h229v118h125v-233h-555v115h57v475h-56zM220 764l82 146h170l-157 -146h-95z" />
    <glyph glyph-name="Ecircumflex" unicode="&#xca;" horiz-adv-x="625" 
d="M28 590v115h540v-221h-118v106h-222v-169h221v-115h-221v-191h229v118h125v-233h-555v115h57v475h-56zM132 764l112 140h141l108 -140h-121l-59 75l-60 -75h-121z" />
    <glyph glyph-name="Edieresis" unicode="&#xcb;" horiz-adv-x="625" 
d="M28 590v115h540v-221h-118v106h-222v-169h221v-115h-221v-191h229v118h125v-233h-555v115h57v475h-56zM145 766v122h127v-122h-127zM352 766v122h128v-122h-128z" />
    <glyph glyph-name="Igrave" unicode="&#xcc;" horiz-adv-x="313" 
d="M30 590v115h254v-115h-54v-475h55v-115h-256v115h57v475h-56zM100 764l-155 146h169l80 -146h-94z" />
    <glyph glyph-name="Iacute" unicode="&#xcd;" horiz-adv-x="313" 
d="M30 590v115h254v-115h-54v-475h55v-115h-256v115h57v475h-56zM104 764l82 146h170l-157 -146h-95z" />
    <glyph glyph-name="Icircumflex" unicode="&#xce;" horiz-adv-x="313" 
d="M30 590v115h254v-115h-54v-475h55v-115h-256v115h57v475h-56zM-24 764l112 140h141l108 -140h-121l-59 75l-60 -75h-121z" />
    <glyph glyph-name="Idieresis" unicode="&#xcf;" horiz-adv-x="313" 
d="M30 590v115h254v-115h-54v-475h55v-115h-256v115h57v475h-56zM-11 766v122h127v-122h-127zM196 766v122h128v-122h-128z" />
    <glyph glyph-name="Eth" unicode="&#xd0;" horiz-adv-x="729" 
d="M403 398v-90h-170v-193h121q89 0 138 60.5t49 168.5q0 135 -63 194q-54 52 -148 52h-97v-192h170zM35 590v115h315q163 0 255 -94t92 -260q0 -163 -82 -256q-85 -95 -252 -95h-329v115h55v192h-55v91h55v192h-54z" />
    <glyph glyph-name="Ntilde" unicode="&#xd1;" horiz-adv-x="792" 
d="M520 590v115h242v-115h-56v-590h-194l-296 534v-419h55v-115h-240v115h57v475h-56v115h244l302 -546v431h-58zM297 764h-76q-1 44 9.5 73.5t29 41t32 15.5t26.5 4q28 0 91 -27q39 -15 55 -15q30 0 31 42h77q2 -43 -8 -73t-27.5 -42t-32 -16.5t-29.5 -4.5q-29 0 -95 26
q-39 16 -53 16q-29 0 -30 -40z" />
    <glyph glyph-name="Ograve" unicode="&#xd2;" horiz-adv-x="750" 
d="M378 599q-87 0 -136 -62.5t-49 -174.5q0 -148 63 -210q49 -49 122 -49q64 0 115 49q64 61 64 210q0 113 -46.5 175t-132.5 62zM374 723q86 0 152.5 -31.5t106.5 -85.5t60 -118.5t20 -136.5q0 -169 -93 -270t-248 -101q-149 0 -242 104.5t-93 273.5q0 151 92 258t245 107z
M339 764l-155 146h169l80 -146h-94z" />
    <glyph glyph-name="Oacute" unicode="&#xd3;" horiz-adv-x="750" 
d="M378 599q-87 0 -136 -62.5t-49 -174.5q0 -148 63 -210q49 -49 122 -49q64 0 115 49q64 61 64 210q0 113 -46.5 175t-132.5 62zM374 723q86 0 152.5 -31.5t106.5 -85.5t60 -118.5t20 -136.5q0 -169 -93 -270t-248 -101q-149 0 -242 104.5t-93 273.5q0 151 92 258t245 107z
M323 764l82 146h170l-157 -146h-95z" />
    <glyph glyph-name="Ocircumflex" unicode="&#xd4;" horiz-adv-x="750" 
d="M378 599q-87 0 -136 -62.5t-49 -174.5q0 -148 63 -210q49 -49 122 -49q64 0 115 49q64 61 64 210q0 113 -46.5 175t-132.5 62zM374 723q86 0 152.5 -31.5t106.5 -85.5t60 -118.5t20 -136.5q0 -169 -93 -270t-248 -101q-149 0 -242 104.5t-93 273.5q0 151 92 258t245 107z
M195 764l112 140h141l108 -140h-121l-59 75l-60 -75h-121z" />
    <glyph glyph-name="Otilde" unicode="&#xd5;" horiz-adv-x="750" 
d="M378 599q-87 0 -136 -62.5t-49 -174.5q0 -148 63 -210q49 -49 122 -49q64 0 115 49q64 61 64 210q0 113 -46.5 175t-132.5 62zM374 723q86 0 152.5 -31.5t106.5 -85.5t60 -118.5t20 -136.5q0 -169 -93 -270t-248 -101q-149 0 -242 104.5t-93 273.5q0 151 92 258t245 107z
M276 764h-76q-1 44 9.5 73.5t29 41t32 15.5t26.5 4q28 0 91 -27q39 -15 55 -15q30 0 31 42h77q2 -43 -8 -73t-27.5 -42t-32 -16.5t-29.5 -4.5q-29 0 -95 26q-39 16 -53 16q-29 0 -30 -40z" />
    <glyph glyph-name="Odieresis" unicode="&#xd6;" horiz-adv-x="750" 
d="M378 599q-87 0 -136 -62.5t-49 -174.5q0 -148 63 -210q49 -49 122 -49q64 0 115 49q64 61 64 210q0 113 -46.5 175t-132.5 62zM374 723q86 0 152.5 -31.5t106.5 -85.5t60 -118.5t20 -136.5q0 -169 -93 -270t-248 -101q-149 0 -242 104.5t-93 273.5q0 151 92 258t245 107z
M208 766v122h127v-122h-127zM415 766v122h128v-122h-128z" />
    <glyph glyph-name="multiply" unicode="&#xd7;" horiz-adv-x="667" 
d="M260 329l-183 183l74 74l183 -183l183 183l74 -74l-182 -183l181 -181l-74 -74l-181 181l-182 -181l-74 74z" />
    <glyph glyph-name="Oslash" unicode="&#xd8;" horiz-adv-x="750" 
d="M715 677l-74 -84q72 -100 72 -242q0 -169 -93 -270t-248 -101q-120 0 -208 72l-61 -69l-59 50l67 76q-74 101 -74 249q0 151 92 258t245 107q128 0 214 -71l68 77zM212 224l287 327q-46 48 -121 48q-87 0 -136 -62.5t-49 -174.5q0 -85 19 -138zM540 478l-286 -324
q51 -51 124 -51q64 0 115 49q64 61 64 210q0 67 -17 116z" />
    <glyph glyph-name="Ugrave" unicode="&#xd9;" horiz-adv-x="760" 
d="M30 590v115h256v-115h-56v-329q0 -72 40.5 -113.5t107.5 -41.5q71 0 112 41t41 114v329h-55v115h254v-115h-55v-334q0 -122 -81 -199t-208 -77q-137 0 -218.5 78t-81.5 209v323h-56zM364 764l-155 146h169l80 -146h-94z" />
    <glyph glyph-name="Uacute" unicode="&#xda;" horiz-adv-x="760" 
d="M30 590v115h256v-115h-56v-329q0 -72 40.5 -113.5t107.5 -41.5q71 0 112 41t41 114v329h-55v115h254v-115h-55v-334q0 -122 -81 -199t-208 -77q-137 0 -218.5 78t-81.5 209v323h-56zM288 764l82 146h170l-157 -146h-95z" />
    <glyph glyph-name="Ucircumflex" unicode="&#xdb;" horiz-adv-x="760" 
d="M30 590v115h256v-115h-56v-329q0 -72 40.5 -113.5t107.5 -41.5q71 0 112 41t41 114v329h-55v115h254v-115h-55v-334q0 -122 -81 -199t-208 -77q-137 0 -218.5 78t-81.5 209v323h-56zM200 764l112 140h141l108 -140h-121l-59 75l-60 -75h-121z" />
    <glyph glyph-name="Udieresis" unicode="&#xdc;" horiz-adv-x="760" 
d="M30 590v115h256v-115h-56v-329q0 -72 40.5 -113.5t107.5 -41.5q71 0 112 41t41 114v329h-55v115h254v-115h-55v-334q0 -122 -81 -199t-208 -77q-137 0 -218.5 78t-81.5 209v323h-56zM213 766v122h127v-122h-127zM420 766v122h128v-122h-128z" />
    <glyph glyph-name="Yacute" unicode="&#xdd;" horiz-adv-x="625" 
d="M32 590v115h151l130 -268l130 268h151v-115h-51l-159 -304v-171h55v-115h-255v115h56v172l-156 303h-52zM220 764l82 146h170l-157 -146h-95z" />
    <glyph glyph-name="Thorn" unicode="&#xde;" 
d="M315 462h-86v-215h93q56 0 89.5 29t33.5 77q0 51 -34.5 80t-95.5 29zM29 705h243v-102h-43v-36h116q115 0 179.5 -58t64.5 -159q0 -93 -64 -151t-169 -58h-127v-35h58v-106h-257v106h56v497h-57v102z" />
    <glyph glyph-name="germandbls" unicode="&#xdf;" horiz-adv-x="625" 
d="M76 100v422q0 70 32.5 124t89.5 78q51 20 126 20q95 0 156.5 -46t61.5 -117q0 -32 -9 -57t-26.5 -41.5t-31 -24.5t-33.5 -18q60 -26 88 -54q62 -60 62 -153q0 -113 -65 -177t-180 -64q-13 0 -73 5v104q34 -2 41 -2q71 0 104 33q40 37 40 100q0 41 -19.5 73t-53.5 45
q-35 14 -96 14v103q64 2 94 23t30 63t-26.5 65.5t-73.5 23.5q-44 0 -76.5 -32t-32.5 -75v-535h-180v100h51z" />
    <glyph glyph-name="agrave" unicode="&#xe0;" horiz-adv-x="594" 
d="M384 201v52q-45 -4 -71 -7.5t-56 -10.5t-45 -16.5t-25.5 -25t-10.5 -37.5q0 -33 24 -53t64 -20q51 0 85.5 34t34.5 84zM509 359v-255h46v-104h-166v63q-41 -41 -77 -57.5t-85 -16.5q-80 0 -134.5 48t-54.5 119q0 33 11.5 59.5t27 44t46 32t54 22.5t66.5 15t68.5 9.5
t74.5 7.5q-1 62 -21 82.5t-78 20.5q-41 0 -67.5 -22t-28.5 -59l-130 4q5 80 65 128t155 48q111 0 169.5 -48.5t58.5 -140.5zM281 594l-155 146h169l80 -146h-94z" />
    <glyph glyph-name="aacute" unicode="&#xe1;" horiz-adv-x="594" 
d="M384 201v52q-45 -4 -71 -7.5t-56 -10.5t-45 -16.5t-25.5 -25t-10.5 -37.5q0 -33 24 -53t64 -20q51 0 85.5 34t34.5 84zM509 359v-255h46v-104h-166v63q-41 -41 -77 -57.5t-85 -16.5q-80 0 -134.5 48t-54.5 119q0 33 11.5 59.5t27 44t46 32t54 22.5t66.5 15t68.5 9.5
t74.5 7.5q-1 62 -21 82.5t-78 20.5q-41 0 -67.5 -22t-28.5 -59l-130 4q5 80 65 128t155 48q111 0 169.5 -48.5t58.5 -140.5zM225 594l82 146h170l-157 -146h-95z" />
    <glyph glyph-name="acircumflex" unicode="&#xe2;" horiz-adv-x="594" 
d="M384 201v52q-45 -4 -71 -7.5t-56 -10.5t-45 -16.5t-25.5 -25t-10.5 -37.5q0 -33 24 -53t64 -20q51 0 85.5 34t34.5 84zM509 359v-255h46v-104h-166v63q-41 -41 -77 -57.5t-85 -16.5q-80 0 -134.5 48t-54.5 119q0 33 11.5 59.5t27 44t46 32t54 22.5t66.5 15t68.5 9.5
t74.5 7.5q-1 62 -21 82.5t-78 20.5q-41 0 -67.5 -22t-28.5 -59l-130 4q5 80 65 128t155 48q111 0 169.5 -48.5t58.5 -140.5zM117 594l112 140h141l108 -140h-121l-59 75l-60 -75h-121z" />
    <glyph glyph-name="atilde" unicode="&#xe3;" horiz-adv-x="594" 
d="M384 201v52q-45 -4 -71 -7.5t-56 -10.5t-45 -16.5t-25.5 -25t-10.5 -37.5q0 -33 24 -53t64 -20q51 0 85.5 34t34.5 84zM509 359v-255h46v-104h-166v63q-41 -41 -77 -57.5t-85 -16.5q-80 0 -134.5 48t-54.5 119q0 33 11.5 59.5t27 44t46 32t54 22.5t66.5 15t68.5 9.5
t74.5 7.5q-1 62 -21 82.5t-78 20.5q-41 0 -67.5 -22t-28.5 -59l-130 4q5 80 65 128t155 48q111 0 169.5 -48.5t58.5 -140.5zM198 594h-76q-1 44 9.5 73.5t29 41t32 15.5t26.5 4q28 0 91 -27q39 -15 55 -15q30 0 31 42h77q2 -43 -8 -73t-27.5 -42t-32 -16.5t-29.5 -4.5
q-29 0 -95 26q-39 16 -53 16q-29 0 -30 -40z" />
    <glyph glyph-name="adieresis" unicode="&#xe4;" horiz-adv-x="594" 
d="M384 201v52q-45 -4 -71 -7.5t-56 -10.5t-45 -16.5t-25.5 -25t-10.5 -37.5q0 -33 24 -53t64 -20q51 0 85.5 34t34.5 84zM509 359v-255h46v-104h-166v63q-41 -41 -77 -57.5t-85 -16.5q-80 0 -134.5 48t-54.5 119q0 33 11.5 59.5t27 44t46 32t54 22.5t66.5 15t68.5 9.5
t74.5 7.5q-1 62 -21 82.5t-78 20.5q-41 0 -67.5 -22t-28.5 -59l-130 4q5 80 65 128t155 48q111 0 169.5 -48.5t58.5 -140.5zM130 596v122h127v-122h-127zM337 596v122h128v-122h-128z" />
    <glyph glyph-name="aring" unicode="&#xe5;" horiz-adv-x="594" 
d="M384 201v52q-45 -4 -71 -7.5t-56 -10.5t-45 -16.5t-25.5 -25t-10.5 -37.5q0 -33 24 -53t64 -20q51 0 85.5 34t34.5 84zM509 359v-255h46v-104h-166v63q-41 -41 -77 -57.5t-85 -16.5q-80 0 -134.5 48t-54.5 119q0 33 11.5 59.5t27 44t46 32t54 22.5t66.5 15t68.5 9.5
t74.5 7.5q-1 62 -21 82.5t-78 20.5q-41 0 -67.5 -22t-28.5 -59l-130 4q5 80 65 128t155 48q111 0 169.5 -48.5t58.5 -140.5zM180 697q0 49 34 83.5t83 34.5t83.5 -34.5t34.5 -83.5t-34.5 -83t-83.5 -34q-48 0 -82.5 34t-34.5 83zM247 698q0 -21 14.5 -36t35.5 -15t35.5 14.5
t14.5 35.5t-14.5 36t-35.5 15t-35.5 -14.5t-14.5 -35.5z" />
    <glyph glyph-name="ae" unicode="&#xe6;" horiz-adv-x="927" 
d="M523 333h230q-7 50 -37 78.5t-75 28.5q-93 0 -118 -107zM386 256q-40 -5 -60.5 -8t-50.5 -9t-44.5 -12.5t-30.5 -17t-22.5 -24.5t-6.5 -32q0 -32 24 -51t65 -19q38 0 70.5 19t44.5 49q11 24 11 105zM179 364h-133q13 85 61 127q61 57 179 57q81 0 119 -23t66 -69
q16 20 26.5 31t33 28.5t52 26.5t65.5 9q75 0 132.5 -40.5t89.5 -114.5q23 -54 28 -153h-383q3 -41 16.5 -70.5t29 -43.5t36 -21.5t29 -8.5t17.5 -1q81 0 106 78h143q-20 -81 -89 -134.5t-157 -53.5q-43 0 -77.5 8.5t-62 27.5t-42 32.5t-38.5 39.5q-24 -27 -37.5 -40
t-39.5 -32.5t-55.5 -28t-65.5 -8.5q-85 0 -141 45t-56 114q0 94 78.5 138.5t276.5 62.5q1 56 -21 80t-71 24t-76 -20.5t-39 -66.5z" />
    <glyph glyph-name="ccedilla" unicode="&#xe7;" horiz-adv-x="583" 
d="M200 -80l15 58q45 10 78 11q-114 1 -186 79.5t-72 202.5q0 123 68.5 201.5t177.5 78.5q45 0 79.5 -16.5t71.5 -54.5v55h112v-197h-117q-20 52 -52 77q-31 25 -76 25q-57 0 -93 -45.5t-36 -116.5q0 -81 35.5 -129t96.5 -48q88 0 120 96h132q-22 -96 -87 -151t-160 -57
q68 -1 104.5 -26t36.5 -71q0 -16 -8.5 -35t-20.5 -29q-41 -37 -144 -37q-52 0 -122 13v59q53 -9 107 -9q72 0 72 40q0 34 -52 34q-33 0 -80 -8z" />
    <glyph glyph-name="egrave" unicode="&#xe8;" horiz-adv-x="583" 
d="M169 334h233q-7 51 -36.5 78t-76.5 27q-44 0 -75.5 -28t-44.5 -77zM400 176h139q-18 -87 -85.5 -137.5t-165.5 -50.5q-113 0 -186.5 79t-73.5 202q0 122 74.5 202t186.5 80q64 0 117.5 -28.5t88.5 -80.5q23 -35 35 -75.5t14.5 -63t3.5 -61.5h-386q5 -48 21.5 -80.5
t39.5 -45t38 -16.5t30 -4q78 0 109 80zM275 594l-155 146h169l80 -146h-94z" />
    <glyph glyph-name="eacute" unicode="&#xe9;" horiz-adv-x="583" 
d="M169 334h233q-7 51 -36.5 78t-76.5 27q-44 0 -75.5 -28t-44.5 -77zM400 176h139q-18 -87 -85.5 -137.5t-165.5 -50.5q-113 0 -186.5 79t-73.5 202q0 122 74.5 202t186.5 80q64 0 117.5 -28.5t88.5 -80.5q23 -35 35 -75.5t14.5 -63t3.5 -61.5h-386q5 -48 21.5 -80.5
t39.5 -45t38 -16.5t30 -4q78 0 109 80zM219 594l82 146h170l-157 -146h-95z" />
    <glyph glyph-name="ecircumflex" unicode="&#xea;" horiz-adv-x="583" 
d="M169 334h233q-7 51 -36.5 78t-76.5 27q-44 0 -75.5 -28t-44.5 -77zM400 176h139q-18 -87 -85.5 -137.5t-165.5 -50.5q-113 0 -186.5 79t-73.5 202q0 122 74.5 202t186.5 80q64 0 117.5 -28.5t88.5 -80.5q23 -35 35 -75.5t14.5 -63t3.5 -61.5h-386q5 -48 21.5 -80.5
t39.5 -45t38 -16.5t30 -4q78 0 109 80zM111 594l112 140h141l108 -140h-121l-59 75l-60 -75h-121z" />
    <glyph glyph-name="edieresis" unicode="&#xeb;" horiz-adv-x="583" 
d="M169 334h233q-7 51 -36.5 78t-76.5 27q-44 0 -75.5 -28t-44.5 -77zM400 176h139q-18 -87 -85.5 -137.5t-165.5 -50.5q-113 0 -186.5 79t-73.5 202q0 122 74.5 202t186.5 80q64 0 117.5 -28.5t88.5 -80.5q23 -35 35 -75.5t14.5 -63t3.5 -61.5h-386q5 -48 21.5 -80.5
t39.5 -45t38 -16.5t30 -4q78 0 109 80zM124 596v122h127v-122h-127zM331 596v122h128v-122h-128z" />
    <glyph glyph-name="igrave" unicode="&#xec;" horiz-adv-x="292" 
d="M36 431v104h182v-431h45v-104h-229v104h53v327h-51zM110 594l-155 146h169l80 -146h-94z" />
    <glyph glyph-name="iacute" unicode="&#xed;" horiz-adv-x="292" 
d="M36 431v104h182v-431h45v-104h-229v104h53v327h-51zM74 594l82 146h170l-157 -146h-95z" />
    <glyph glyph-name="icircumflex" unicode="&#xee;" horiz-adv-x="292" 
d="M36 431v104h182v-431h45v-104h-229v104h53v327h-51zM-54 594l112 140h141l108 -140h-121l-59 75l-60 -75h-121z" />
    <glyph glyph-name="idieresis" unicode="&#xef;" horiz-adv-x="292" 
d="M36 431v104h182v-431h45v-104h-229v104h53v327h-51zM-41 596v122h127v-122h-127zM166 596v122h128v-122h-128z" />
    <glyph glyph-name="eth" unicode="&#xf0;" horiz-adv-x="604" 
d="M447 739l19 -45l1 -1l-79 -35q178 -145 180 -389q0 -120 -75.5 -201t-187.5 -81q-116 0 -192.5 80t-76.5 202q0 115 64.5 191t163.5 76q35 0 70 -15t59 -42q-25 70 -109 135l-110 -47l-17 42l84 37q-39 27 -56 35l45 64q59 -21 110 -54zM300 436q-56 0 -91 -45.5
t-35 -119.5q0 -76 34.5 -122.5t91.5 -46.5q59 0 94 45.5t35 123.5q0 72 -36.5 118.5t-92.5 46.5z" />
    <glyph glyph-name="ntilde" unicode="&#xf1;" 
d="M542 389v-285h49v-104h-180v358q0 38 -21 59t-58 21q-48 0 -84 -41t-36 -95v-198h49v-104h-230v104h50v327h-50v104h181v-68q21 22 36.5 36t51.5 30t76 16q71 0 118.5 -45.5t47.5 -114.5zM208 594h-76q-1 44 9.5 73.5t29 41t32 15.5t26.5 4q28 0 91 -27q39 -15 55 -15
q30 0 31 42h77q2 -43 -8 -73t-27.5 -42t-32 -16.5t-29.5 -4.5q-29 0 -95 26q-39 16 -53 16q-29 0 -30 -40z" />
    <glyph glyph-name="ograve" unicode="&#xf2;" horiz-adv-x="604" 
d="M305 551q110 0 186.5 -82t76.5 -200q0 -120 -75.5 -201t-187.5 -81q-116 0 -192.5 80t-76.5 202q0 121 77 201.5t192 80.5zM300 436q-56 0 -91 -45.5t-35 -119.5q0 -76 34.5 -122.5t91.5 -46.5q59 0 94 45.5t35 123.5q0 72 -36.5 118.5t-92.5 46.5zM266 594l-155 146h169
l80 -146h-94z" />
    <glyph glyph-name="oacute" unicode="&#xf3;" horiz-adv-x="604" 
d="M305 551q110 0 186.5 -82t76.5 -200q0 -120 -75.5 -201t-187.5 -81q-116 0 -192.5 80t-76.5 202q0 121 77 201.5t192 80.5zM300 436q-56 0 -91 -45.5t-35 -119.5q0 -76 34.5 -122.5t91.5 -46.5q59 0 94 45.5t35 123.5q0 72 -36.5 118.5t-92.5 46.5zM230 594l82 146h170
l-157 -146h-95z" />
    <glyph glyph-name="ocircumflex" unicode="&#xf4;" horiz-adv-x="604" 
d="M305 551q110 0 186.5 -82t76.5 -200q0 -120 -75.5 -201t-187.5 -81q-116 0 -192.5 80t-76.5 202q0 121 77 201.5t192 80.5zM300 436q-56 0 -91 -45.5t-35 -119.5q0 -76 34.5 -122.5t91.5 -46.5q59 0 94 45.5t35 123.5q0 72 -36.5 118.5t-92.5 46.5zM122 594l112 140h141
l108 -140h-121l-59 75l-60 -75h-121z" />
    <glyph glyph-name="otilde" unicode="&#xf5;" horiz-adv-x="604" 
d="M305 551q110 0 186.5 -82t76.5 -200q0 -120 -75.5 -201t-187.5 -81q-116 0 -192.5 80t-76.5 202q0 121 77 201.5t192 80.5zM300 436q-56 0 -91 -45.5t-35 -119.5q0 -76 34.5 -122.5t91.5 -46.5q59 0 94 45.5t35 123.5q0 72 -36.5 118.5t-92.5 46.5zM203 594h-76
q-1 44 9.5 73.5t29 41t32 15.5t26.5 4q28 0 91 -27q39 -15 55 -15q30 0 31 42h77q2 -43 -8 -73t-27.5 -42t-32 -16.5t-29.5 -4.5q-29 0 -95 26q-39 16 -53 16q-29 0 -30 -40z" />
    <glyph glyph-name="odieresis" unicode="&#xf6;" horiz-adv-x="604" 
d="M305 551q110 0 186.5 -82t76.5 -200q0 -120 -75.5 -201t-187.5 -81q-116 0 -192.5 80t-76.5 202q0 121 77 201.5t192 80.5zM300 436q-56 0 -91 -45.5t-35 -119.5q0 -76 34.5 -122.5t91.5 -46.5q59 0 94 45.5t35 123.5q0 72 -36.5 118.5t-92.5 46.5zM135 596v122h127v-122
h-127zM342 596v122h128v-122h-128z" />
    <glyph glyph-name="divide" unicode="&#xf7;" horiz-adv-x="668" 
d="M270 535q0 25 18 43.5t44 18.5t44.5 -18t18.5 -44t-18 -44.5t-44 -18.5t-44.5 18.5t-18.5 44.5zM63 282v100h543v-100h-543zM270 130q0 26 18 44t44 18t44.5 -18t18.5 -44t-18 -44.5t-44 -18.5t-44.5 18.5t-18.5 44.5z" />
    <glyph glyph-name="oslash" unicode="&#xf8;" horiz-adv-x="603" 
d="M552 515l-51 -58q67 -80 67 -188q0 -120 -75.5 -201t-187.5 -81q-93 0 -165 56l-50 -57l-42 38l51 59q-63 77 -63 186q0 121 77 201.5t192 80.5q87 0 155 -54l48 56zM189 187l190 217q-34 32 -79 32q-56 0 -91 -45.5t-35 -119.5q0 -48 15 -84zM412 355l-191 -219
q29 -34 79 -34q59 0 94 45.5t35 123.5q0 48 -17 84z" />
    <glyph glyph-name="ugrave" unicode="&#xf9;" 
d="M26 431v104h183v-346q0 -93 77 -93q48 0 85 42.5t37 97.5v195h-52v104h183v-431h49v-104h-177v65q-32 -26 -50.5 -39.5t-52 -26t-70.5 -12.5q-77 0 -118.5 45.5t-41.5 128.5v270h-52zM271 594l-155 146h169l80 -146h-94z" />
    <glyph glyph-name="uacute" unicode="&#xfa;" 
d="M26 431v104h183v-346q0 -93 77 -93q48 0 85 42.5t37 97.5v195h-52v104h183v-431h49v-104h-177v65q-32 -26 -50.5 -39.5t-52 -26t-70.5 -12.5q-77 0 -118.5 45.5t-41.5 128.5v270h-52zM215 594l82 146h170l-157 -146h-95z" />
    <glyph glyph-name="ucircumflex" unicode="&#xfb;" 
d="M26 431v104h183v-346q0 -93 77 -93q48 0 85 42.5t37 97.5v195h-52v104h183v-431h49v-104h-177v65q-32 -26 -50.5 -39.5t-52 -26t-70.5 -12.5q-77 0 -118.5 45.5t-41.5 128.5v270h-52zM107 594l112 140h141l108 -140h-121l-59 75l-60 -75h-121z" />
    <glyph glyph-name="udieresis" unicode="&#xfc;" 
d="M26 431v104h183v-346q0 -93 77 -93q48 0 85 42.5t37 97.5v195h-52v104h183v-431h49v-104h-177v65q-32 -26 -50.5 -39.5t-52 -26t-70.5 -12.5q-77 0 -118.5 45.5t-41.5 128.5v270h-52zM120 596v122h127v-122h-127zM327 596v122h128v-122h-128z" />
    <glyph glyph-name="yacute" unicode="&#xfd;" horiz-adv-x="583" 
d="M338 431v104h221v-104h-46l-188 -558q-12 -36 -39.5 -49t-91.5 -13q-55 0 -84 5v108h72q22 0 32 11.5t20 47.5l4 13l-169 435h-45v104h224v-104h-47l97 -271l86 271h-46zM199 594l82 146h170l-157 -146h-95z" />
    <glyph glyph-name="thorn" unicode="&#xfe;" horiz-adv-x="635" 
d="M33 -170v105h49v699h-50v104h182v-257q74 70 158 70q101 0 164.5 -80t63.5 -210q0 -118 -66.5 -196t-166.5 -78q-46 0 -79 16.5t-72 57.5v-127h49v-104h-232zM337 440q-48 0 -85 -39q-21 -21 -29 -50.5t-8 -81.5q0 -95 39 -135q39 -37 83 -37q57 0 91 45.5t34 121.5
q0 82 -33.5 129t-91.5 47z" />
    <glyph glyph-name="ydieresis" unicode="&#xff;" horiz-adv-x="583" 
d="M338 431v104h221v-104h-46l-188 -558q-12 -36 -39.5 -49t-91.5 -13q-55 0 -84 5v108h72q22 0 32 11.5t20 47.5l4 13l-169 435h-45v104h224v-104h-47l97 -271l86 271h-46zM124 596v122h127v-122h-127zM331 596v122h128v-122h-128z" />
    <glyph glyph-name="dotlessi" unicode="&#x131;" horiz-adv-x="292" 
d="M36 431v104h182v-431h45v-104h-229v104h53v327h-51z" />
    <glyph glyph-name="Lslash" unicode="&#x141;" horiz-adv-x="583" 
d="M368 461l-141 -116v-230h193v117h125v-232h-518v115h56v131l-70 -58v125l70 58v219h-55v115h254v-115h-55v-120l141 116v-125z" />
    <glyph glyph-name="lslash" unicode="&#x142;" horiz-adv-x="292" 
d="M33 634v104h183v-267l67 54v-101l-67 -54v-267h51v-103h-234v102h52v171l-66 -53v101l66 53v260h-52z" />
    <glyph glyph-name="OE" unicode="&#x152;" horiz-adv-x="1052" 
d="M523 113v481q-109 0 -163 -9q-79 -14 -121 -75t-42 -156q0 -118 57 -176q63 -65 192 -65h77zM887 422v-113h-219v-194h226v118h121v-233h-602q-82 0 -156.5 28t-120.5 74q-44 45 -70 112.5t-26 137.5t23.5 132t70.5 112t126 79.5t181 29.5h564v-218h-114v107h-223v-172
h219z" />
    <glyph glyph-name="oe" unicode="&#x153;" horiz-adv-x="969" 
d="M568 336h231q-7 49 -36.5 77t-74.5 28q-88 0 -120 -105zM306 435q-58 0 -93.5 -44.5t-35.5 -117.5q0 -79 35.5 -127.5t93.5 -48.5q59 0 94 45t35 122q0 78 -35 124.5t-94 46.5zM795 178h141q-14 -55 -43.5 -94t-65.5 -58.5t-69 -28t-65 -8.5q-50 0 -90.5 13t-59.5 26
t-47 38q-47 -43 -90 -60q-49 -20 -101 -20q-113 0 -189.5 80t-76.5 199q0 120 76.5 201t190.5 81q36 0 66.5 -7.5t55 -21.5t37 -23.5t30.5 -25.5q83 81 187 81q62 0 117.5 -27.5t87.5 -74.5q50 -74 56 -204h-380q3 -68 35.5 -107t86.5 -39q43 0 66.5 17t43.5 63z" />
    <glyph glyph-name="Scaron" unicode="&#x160;" horiz-adv-x="625" 
d="M32 234h116q50 -126 176 -126q58 0 94.5 26.5t36.5 67.5q0 22 -9.5 38.5t-21.5 25.5t-38 16t-42.5 10t-51.5 7q-53 6 -81 11.5t-65 23t-64 46.5q-50 55 -50 132q0 85 66 145t158 60q52 0 94 -16.5t60 -31.5t39 -39v75h112v-210h-109q-12 22 -21.5 35t-29.5 33t-49.5 30
t-67.5 10q-47 0 -80.5 -24.5t-33.5 -59.5q0 -37 30 -53t114 -24q114 -13 171 -44q44 -25 70.5 -61.5t34 -65t7.5 -57.5q0 -96 -69.5 -162.5t-169.5 -66.5q-54 0 -100.5 19t-65 35t-43.5 41v-80h-117v234zM493 904l-112 -140h-141l-108 140h121l59 -75l60 75h121z" />
    <glyph glyph-name="scaron" unicode="&#x161;" horiz-adv-x="521" 
d="M34 190h101q25 -51 55 -74q33 -24 78 -24q43 0 70.5 19t27.5 48q0 30 -24 42.5t-93 20.5q-111 11 -154 44q-61 46 -61 119q0 69 52.5 115.5t131.5 46.5q43 0 77 -15.5t69 -51.5v55h104v-166h-104q-30 85 -121 85q-41 0 -65.5 -16t-24.5 -43q0 -25 21.5 -34t101.5 -17
q216 -23 216 -181q0 -74 -54 -123t-136 -49q-45 0 -82 15.5t-50.5 28t-32.5 33.5v-68h-103v190zM441 734l-112 -140h-141l-108 140h121l59 -75l60 75h121z" />
    <glyph glyph-name="Ydieresis" unicode="&#x178;" horiz-adv-x="625" 
d="M32 590v115h151l130 -268l130 268h151v-115h-51l-159 -304v-171h55v-115h-255v115h56v172l-156 303h-52zM145 766v122h127v-122h-127zM352 766v122h128v-122h-128z" />
    <glyph glyph-name="Zcaron" unicode="&#x17d;" horiz-adv-x="594" 
d="M58 512v193h501v-115l-353 -475h235v81h124v-196h-539v114l363 476h-208v-78h-123zM478 904l-112 -140h-141l-108 140h121l59 -75l60 75h121z" />
    <glyph glyph-name="zcaron" unicode="&#x17e;" horiz-adv-x="479" 
d="M55 361v174h398v-104l-271 -327h167v72h111v-176h-432v103l270 328h-132v-70h-111zM420 734l-112 -140h-141l-108 140h121l59 -75l60 75h121z" />
    <glyph glyph-name="florin" unicode="&#x192;" horiz-adv-x="556" 
d="M235 415h-98l18 103h98l8 44q5 29 8 41.5t9.5 35t13.5 32t19 23.5t27.5 19.5t38.5 10t52 4.5q63 0 131 -20l-27 -111q-42 14 -75 14q-30 0 -42 -12.5t-20 -53.5l-5 -27h101l-18 -103h-100l-84 -477q-5 -28 -9.5 -45t-16 -39t-27.5 -34.5t-43.5 -21t-65.5 -8.5
q-74 0 -136 19l28 108q57 -11 85 -11q27 0 37.5 15.5t19.5 67.5z" />
    <glyph glyph-name="circumflex" unicode="&#x2c6;" horiz-adv-x="333" 
d="M-14 594l112 140h141l108 -140h-121l-59 75l-60 -75h-121z" />
    <glyph glyph-name="caron" unicode="&#x2c7;" horiz-adv-x="333" 
d="M347 734l-112 -140h-141l-108 140h121l59 -75l60 75h121z" />
    <glyph glyph-name="breve" unicode="&#x2d8;" horiz-adv-x="333" 
d="M0 740h84q10 -29 28 -40.5t55 -11.5q40 0 58.5 11.5t27.5 40.5h80q-3 -50 -18 -76.5t-52 -46.5q-42 -24 -96 -24q-72 0 -115.5 38.5t-51.5 108.5z" />
    <glyph glyph-name="dotaccent" unicode="&#x2d9;" horiz-adv-x="333" 
d="M76 587v172h180v-172h-180z" />
    <glyph glyph-name="ring" unicode="&#x2da;" horiz-adv-x="333" 
d="M49 697q0 49 34 83.5t83 34.5t83.5 -34.5t34.5 -83.5t-34.5 -83t-83.5 -34q-48 0 -82.5 34t-34.5 83zM116 698q0 -21 14.5 -36t35.5 -15t35.5 14.5t14.5 35.5t-14.5 36t-35.5 15t-35.5 -14.5t-14.5 -35.5z" />
    <glyph glyph-name="ogonek" unicode="&#x2db;" horiz-adv-x="333" 
d="M294 -120v-76q-59 -22 -101 -22q-59 0 -92 31t-33 86q0 39 23 114h82q-9 -41 -9 -72q0 -35 18 -54t50 -19q25 0 62 12z" />
    <glyph glyph-name="tilde" unicode="&#x2dc;" horiz-adv-x="333" 
d="M67 594h-76q-1 44 9.5 73.5t29 41t32 15.5t26.5 4q28 0 91 -27q39 -15 55 -15q30 0 31 42h77q2 -43 -8 -73t-27.5 -42t-32 -16.5t-29.5 -4.5q-29 0 -95 26q-39 16 -53 16q-29 0 -30 -40z" />
    <glyph glyph-name="hungarumlaut" unicode="&#x2dd;" horiz-adv-x="333" 
d="M16 596l82 144h159l-145 -144h-96zM211 596l81 144h160l-147 -144h-94z" />
    <glyph glyph-name="endash" unicode="&#x2013;" horiz-adv-x="500" 
d="M-4 204v88h509v-88h-509z" />
    <glyph glyph-name="emdash" unicode="&#x2014;" horiz-adv-x="1000" 
d="M-4 204v88h1011v-88h-1011z" />
    <glyph glyph-name="quoteleft" unicode="&#x2018;" horiz-adv-x="292" 
d="M74 472v134q0 43 20.5 78.5t52.5 48.5q30 13 71 13v-52q-36 -1 -51.5 -19t-17.5 -59h69v-144h-144z" />
    <glyph glyph-name="quoteright" unicode="&#x2019;" horiz-adv-x="292" 
d="M74 594v144h144v-147q0 -55 -38 -91q-18 -18 -40.5 -26t-65.5 -12v51q35 4 51 22.5t20 58.5h-71z" />
    <glyph glyph-name="quotesinglbase" unicode="&#x201a;" horiz-adv-x="292" 
d="M147 0h-69v144h145v-146q0 -53 -35.5 -92t-107.5 -37l-1 49q43 8 55 23t13 59z" />
    <glyph glyph-name="quotedblleft" unicode="&#x201c;" horiz-adv-x="417" 
d="M38 472v139q0 61 37.5 97.5t103.5 37.5v-49q-67 -4 -70 -81h70v-144h-141zM239 472v148q0 54 38.5 88.5t102.5 37.5v-49q-36 -6 -50.5 -23.5t-18.5 -57.5h69v-144h-141z" />
    <glyph glyph-name="quotedblright" unicode="&#x201d;" horiz-adv-x="417" 
d="M238 594v144h141v-150q0 -53 -37.5 -86.5t-103.5 -38.5v51q35 5 51 23.5t17 56.5h-68zM37 593v145h141v-156q0 -12 -5.5 -28t-18.5 -37t-43.5 -36t-73.5 -18v50q38 8 52.5 25t15.5 55h-68z" />
    <glyph glyph-name="quotedblbase" unicode="&#x201e;" horiz-adv-x="417" 
d="M238 0v144h141v-146q0 -31 -15 -60t-39 -45q-32 -20 -86 -23v50q62 4 68 80h-69zM37 0v144h141v-147q0 -48 -35 -86q-20 -20 -41.5 -28.5t-64.5 -12.5v50q37 7 51.5 24t16.5 56h-68z" />
    <glyph glyph-name="dagger" unicode="&#x2020;" horiz-adv-x="552" 
d="M209 534v212h135v-212l173 3v-115l-173 8l-18 -611h-99l-18 611l-173 -8v115z" />
    <glyph glyph-name="daggerdbl" unicode="&#x2021;" horiz-adv-x="552" 
d="M209 568v178h135v-178l173 3v-115l-173 8l-9 -183l9 -181l173 7v-115l-173 3v-176h-135v176l-173 -3v115l173 -8l9 182l-9 183l-173 -8v115z" />
    <glyph glyph-name="bullet" unicode="&#x2022;" horiz-adv-x="350" 
d="M319 353q0 -59 -42.5 -101.5t-102.5 -42.5q-59 0 -101.5 42.5t-42.5 101.5q0 60 42.5 102.5t101.5 42.5q60 0 102.5 -42.5t42.5 -102.5z" />
    <glyph glyph-name="ellipsis" unicode="&#x2026;" horiz-adv-x="1000" 
d="M94 0v145h168v-145h-168zM416 0v145h168v-145h-168zM738 0v144h168v-144h-168z" />
    <glyph glyph-name="perthousand" unicode="&#x2030;" horiz-adv-x="1167" 
d="M205 744q78 0 127 -52t49 -135q0 -89 -48.5 -143t-127.5 -54t-125 53t-46 144q0 82 48 134.5t123 52.5zM209 663q-33 0 -52.5 -29.5t-19.5 -79.5q0 -113 72 -113q32 0 50.5 29t18.5 81t-18.5 82t-50.5 30zM569 349q79 0 129 -52t50 -133q0 -92 -48 -145t-131 -53
q-15 0 -33.5 4t-43.5 16.5t-44.5 32.5t-33.5 56.5t-14 83.5q0 84 47.5 137t121.5 53zM572 268q-34 0 -52 -29.5t-17 -83.5q0 -52 18.5 -80t52.5 -28q32 0 51.5 29.5t19.5 78.5q-2 113 -73 113zM954 349q79 0 129 -52t50 -133q0 -92 -48 -145t-131 -53q-15 0 -33.5 4
t-43.5 16.5t-44.5 32.5t-33.5 56.5t-14 83.5q0 84 47.5 137t121.5 53zM957 268q-34 0 -52 -29.5t-17 -83.5q0 -52 18.5 -80t52.5 -28q32 0 51.5 29.5t19.5 78.5q-2 113 -73 113zM156 -32l393 774h78l-393 -774h-78z" />
    <glyph glyph-name="guilsinglleft" unicode="&#x2039;" horiz-adv-x="354" 
d="M40 267l162 269h119l-160 -268l160 -268h-120z" />
    <glyph glyph-name="guilsinglright" unicode="&#x203a;" horiz-adv-x="354" 
d="M194 267l-160 269h120l160 -268l-161 -268h-120z" />
    <glyph glyph-name="fraction" unicode="&#x2044;" horiz-adv-x="188" 
d="M-143 -35l396 777h79l-395 -777h-80z" />
    <glyph glyph-name="trademark" unicode="&#x2122;" horiz-adv-x="1000" 
d="M304 316h-81v330h-124v69h325v-69h-120v-330zM549 316h-77v399h127l73 -274l72 274h127v-399h-77v319l-86 -319h-74l-85 318v-318z" />
    <glyph glyph-name="minus" unicode="&#x2212;" horiz-adv-x="667" 
d="M62 278v105h543v-105h-543z" />
    <glyph glyph-name="fi" unicode="&#xfb01;" horiz-adv-x="635" 
d="M413 611v125h147v-125h-147zM97 535v95q0 56 28 84t118 28q45 0 86 -6v-104q-3 -1 -21.5 0.5t-20.5 1.5q-18 0 -29.5 -4.5t-18 -10.5t-9.5 -21t-3 -26.5v-36.5h333v-431h51v-104h-233v104h51v327h-201v-327h53v-104h-236v104h52v327h-73v104h73z" />
    <glyph glyph-name="fl" unicode="&#xfb02;" horiz-adv-x="635" 
d="M95 535v117q0 92 136 92q24 0 62 -3l19 -1q18 -2 28 -2h219v-634h51v-104h-233v104h51v527h-57q-5 0 -38.5 1.5t-39.5 1.5q-49 0 -58 -18t-7 -81h86v-104h-88v-327h53v-104h-236v104h52v327h-72v104h72z" />
  </font>
</defs>
</svg>
