<svg xmlns="http://www.w3.org/2000/svg" width="90" height="27" viewBox="0 0 90 27">
  <defs>
    <style>
      .a {
        fill: #AFBF36;
      }
    </style>
  </defs>
  <title>domenica-fiore-wordmark</title>
  <g>
    <polygon class="a" points="46.17 7.49 44.53 7.49 44.53 8.87 41.14 8.87 41.14 6.23 44.28 6.23 44.28 4.59 41.14 4.59 41.14 2.09 44.53 2.09 44.53 3.31 46.17 3.31 46.17 0.45 38.28 0.45 38.28 2.09 39.1 2.09 39.1 8.87 38.28 8.87 38.28 10.51 46.17 10.51 46.17 7.49"/>
    <path class="a" d="M5.05,8.87H3.33V2.09h1.3a3.17,3.17,0,0,1,2.18.75A3.59,3.59,0,0,1,7.7,5.6c0,2.05-1,3.27-2.65,3.27M5,.45H.51V2.09h.77V8.87H.5v1.64H5.17A4.43,4.43,0,0,0,8.76,9.16,5.55,5.55,0,0,0,9.92,5.5c0-3.16-1.85-5-4.93-5"/>
    <polygon class="a" points="30.86 4.05 29.92 7.8 28.96 4.11 27.95 0.45 24.17 0.45 24.17 2.09 24.95 2.09 24.95 8.87 24.17 8.87 24.17 10.51 26.81 10.51 26.81 4.53 26.7 1.53 29.23 10.51 30.59 10.51 33.05 1.72 33.03 2.16 32.99 4.06 32.99 10.51 35.61 10.51 35.61 8.87 34.81 8.87 34.81 2.09 35.61 2.09 35.61 0.45 31.83 0.45 30.86 4.05"/>
    <polygon class="a" points="55.78 2.09 56.61 2.09 56.61 8.24 52.32 0.45 48.85 0.45 48.85 2.09 49.65 2.09 49.65 8.87 48.85 8.87 48.85 10.51 52.25 10.51 52.25 8.87 51.47 8.87 51.47 2.89 55.67 10.51 58.43 10.51 58.43 2.09 59.22 2.09 59.22 0.45 55.78 0.45 55.78 2.09"/>
    <path class="a" d="M84.8,2.34l1.3,4.45H83.46ZM83.59.45,80.8,8.87H80v1.64h2.33L83,8.33h3.52l.66,2.18h2.3V8.87h-.75L86,.45Z"/>
    <path class="a" d="M17,8.86a3.38,3.38,0,1,1,3.39-3.38A3.38,3.38,0,0,1,17,8.86m5.25-3.38A5.25,5.25,0,1,0,17,10.72a5.25,5.25,0,0,0,5.25-5.24"/>
    <polygon class="a" points="65.51 8.87 64.74 8.87 64.74 2.09 65.51 2.09 65.51 0.45 61.9 0.45 61.9 2.09 62.7 2.09 62.7 8.87 61.9 8.87 61.9 10.51 65.51 10.51 65.51 8.87"/>
    <g>
      <path class="a" d="M77.89.45h-1.6v1a5.24,5.24,0,1,0,1.6,5.64h-2A3.39,3.39,0,1,1,75.94,4h2Z"/>
      <path class="a" d="M54,20.13H52.37V17.56h1.34c1.29,0,1.9.4,1.9,1.23S55,20.13,54,20.13m3.6,3.7c0-1.95-.4-2.48-1.34-3a2.11,2.11,0,0,0,1.38-2.17c0-1-.4-2.77-3.5-2.77H49.5v1.64h.83v6.78h-.84V26h3.58V24.34h-.7V21.68h1.42a1.57,1.57,0,0,1,1.79,1.78V26H58.4V24.34h-.82Z"/>
    </g>
    <polygon class="a" points="61.02 15.92 61.02 17.57 61.83 17.57 61.83 24.35 61.02 24.35 61.02 25.99 68.91 25.99 68.91 22.96 67.27 22.96 67.27 24.35 63.88 24.35 63.88 21.7 67.02 21.7 67.02 20.06 63.88 20.06 63.88 17.57 67.27 17.57 67.27 18.78 68.91 18.78 68.91 15.92 61.02 15.92"/>
    <polygon class="a" points="31.65 16 31.65 17.64 32.45 17.64 32.45 24.43 31.65 24.43 31.65 26.07 35.26 26.07 35.26 24.43 34.5 24.43 34.5 17.64 35.26 17.64 35.26 16 31.65 16"/>
    <path class="a" d="M42.39,24.38A3.38,3.38,0,1,1,45.77,21a3.38,3.38,0,0,1-3.38,3.38M47.64,21a5.25,5.25,0,1,0-5.25,5.24A5.24,5.24,0,0,0,47.64,21"/>
    <polygon class="a" points="21.09 16 21.09 17.64 21.9 17.64 21.9 24.43 21.09 24.43 21.09 26.07 24.75 26.07 24.75 24.43 23.94 24.43 23.94 21.78 27.09 21.78 27.09 20.14 23.94 20.14 23.94 17.64 27.33 17.64 27.33 18.86 28.98 18.86 28.98 16 21.09 16"/>
  </g>
</svg>
