<svg xmlns="http://www.w3.org/2000/svg" width="85" height="77" viewBox="0 0 85 77">
  <defs>
    <style>
      .a {
        fill: #AFBF36;
      }
    </style>
  </defs>
  <title>domenica-fiore-logo</title>
  <g>
    <polygon class="a" points="43.61 58.82 42.05 58.82 42.05 60.12 38.86 60.12 38.86 57.63 41.82 57.63 41.82 56.08 38.86 56.08 38.86 53.73 42.05 53.73 42.05 54.88 43.61 54.88 43.61 52.18 36.16 52.18 36.16 53.73 36.93 53.73 36.93 60.12 36.16 60.12 36.16 61.67 43.61 61.67 43.61 58.82"/>
    <path class="a" d="M4.79,60.12H3.17V53.73H4.4a3,3,0,0,1,2.05.7A3.39,3.39,0,0,1,7.3,57c0,1.93-.9,3.08-2.51,3.08m0-7.94H.51v1.55h.73v6.39H.5v1.55H4.91a4.15,4.15,0,0,0,3.38-1.28A5.2,5.2,0,0,0,9.39,57c0-3-1.74-4.77-4.65-4.77"/>
    <polygon class="a" points="29.15 55.57 28.27 59.11 27.36 55.63 26.41 52.18 22.84 52.18 22.84 53.73 23.57 53.73 23.57 60.12 22.84 60.12 22.84 61.67 25.33 61.67 25.33 56.03 25.23 53.2 27.61 61.67 28.9 61.67 31.22 53.38 31.2 53.8 31.17 55.59 31.17 61.67 33.63 61.67 33.63 60.12 32.88 60.12 32.88 53.73 33.63 53.73 33.63 52.18 30.07 52.18 29.15 55.57"/>
    <polygon class="a" points="52.68 53.73 53.46 53.73 53.46 59.53 49.41 52.18 46.13 52.18 46.13 53.73 46.88 53.73 46.88 60.12 46.13 60.12 46.13 61.67 49.34 61.67 49.34 60.12 48.6 60.12 48.6 54.48 52.57 61.67 55.17 61.67 55.17 53.73 55.92 53.73 55.92 52.18 52.68 52.18 52.68 53.73"/>
    <path class="a" d="M80.06,54l1.23,4.2H78.8Zm-1.14-1.78-2.63,7.94h-.72v1.55h2.2l.61-2.06h3.33l.62,2.06H84.5V60.12h-.71l-2.6-7.94Z"/>
    <path class="a" d="M16.11,60.11a3.19,3.19,0,1,1,3.2-3.18,3.18,3.18,0,0,1-3.2,3.18m5-3.18a5,5,0,1,0-5,4.93,4.95,4.95,0,0,0,5-4.93"/>
    <polygon class="a" points="61.86 60.12 61.13 60.12 61.13 53.73 61.86 53.73 61.86 52.18 58.45 52.18 58.45 53.73 59.2 53.73 59.2 60.12 58.45 60.12 58.45 61.67 61.86 61.67 61.86 60.12"/>
    <g>
      <path class="a" d="M73.54,52.18H72v1a4.94,4.94,0,1,0,1.51,5.32H71.63a3.19,3.19,0,1,1,.07-2.95h1.84Z"/>
      <path class="a" d="M51,70.74H49.46V68.32h1.26c1.22,0,1.8.37,1.8,1.15s-.58,1.27-1.55,1.27m3.4,3.49c0-1.85-.38-2.35-1.26-2.8a2,2,0,0,0,1.3-2.05c0-.9-.38-2.61-3.3-2.61H46.75v1.55h.78v6.39h-.79v1.55h3.38V74.71h-.66V72.19H50.8a1.48,1.48,0,0,1,1.69,1.68v2.39h2.66V74.71h-.78Z"/>
    </g>
    <polygon class="a" points="57.62 66.77 57.62 68.32 58.39 68.32 58.39 74.71 57.62 74.71 57.62 76.26 65.07 76.26 65.07 73.41 63.51 73.41 63.51 74.71 60.32 74.71 60.32 72.22 63.28 72.22 63.28 70.67 60.32 70.67 60.32 68.32 63.51 68.32 63.51 69.46 65.07 69.46 65.07 66.77 57.62 66.77"/>
    <polygon class="a" points="29.9 66.84 29.9 68.39 30.65 68.39 30.65 74.78 29.9 74.78 29.9 76.33 33.31 76.33 33.31 74.78 32.59 74.78 32.59 68.39 33.31 68.39 33.31 66.84 29.9 66.84"/>
    <path class="a" d="M40,74.74a3.18,3.18,0,1,1,3.19-3.18A3.19,3.19,0,0,1,40,74.74m5-3.18a5,5,0,1,0-5,4.94,4.95,4.95,0,0,0,5-4.94"/>
    <polygon class="a" points="19.93 66.84 19.93 68.39 20.7 68.39 20.7 74.78 19.93 74.78 19.93 76.33 23.39 76.33 23.39 74.78 22.63 74.78 22.63 72.29 25.59 72.29 25.59 70.74 22.63 70.74 22.63 68.39 25.82 68.39 25.82 69.54 27.38 69.54 27.38 66.84 19.93 66.84"/>
    <path class="a" d="M57.22,10.34A21.34,21.34,0,0,0,42.06,4.1c-.67,0-1.34,0-2,.09a21.44,21.44,0,0,0-4.85-1.74l0,0a9.54,9.54,0,0,0-1.18-1A5.21,5.21,0,0,0,31.74.57c-.27,0-.52-.06-.74-.07h-.2a8.52,8.52,0,0,0-1.86.25l-.16,0h0a1.87,1.87,0,0,0-.58.18s0,0,0,0a.11.11,0,0,0,0,.05,2,2,0,0,0,.43.43l.13.11a8.18,8.18,0,0,0,1.7,1.19c.2.1.42.19.68.29a5.43,5.43,0,0,0,1.9.37,4,4,0,0,0,.49,0A9,9,0,0,0,35,3.09h.05a21.37,21.37,0,0,1,3.77,1.25,21.28,21.28,0,0,0-7.42,2.57,21.59,21.59,0,0,0-6.2,5.33h0a8,8,0,0,0-1.29.69,4.84,4.84,0,0,0-1.52,1.7c-.13.22-.23.43-.32.62a7.87,7.87,0,0,0-.49,1.89l0,.17a1.81,1.81,0,0,0,0,.57.07.07,0,0,0,.07.06h0a1.86,1.86,0,0,0,.53-.22h0l.14-.08a8.15,8.15,0,0,0,1.64-1.08c.16-.15.32-.31.49-.5a4.66,4.66,0,0,0,1.12-2,7.54,7.54,0,0,0,.24-1.45h0A20.93,20.93,0,0,1,50.22,6.4a18.75,18.75,0,0,0-5.72-.61A21.5,21.5,0,0,0,38.34,7c-.42.15-.84.32-1.26.49h-.46a8.32,8.32,0,0,0-1.18.08,5.43,5.43,0,0,0-2.35,1,7.12,7.12,0,0,0-.62.47,8.75,8.75,0,0,0-1.41,1.66,1.34,1.34,0,0,1-.11.14,2.08,2.08,0,0,0-.32.56s0,0,0,.05,0,0,0,0a1.18,1.18,0,0,0,.34,0h.48a9,9,0,0,0,2.16-.29c.23-.07.47-.16.74-.26a5.37,5.37,0,0,0,2.08-1.45,8.21,8.21,0,0,0,.94-1.33.19.19,0,0,0,0-.09c.36-.15.73-.29,1.09-.42a20.94,20.94,0,0,1,6-1.18,18.16,18.16,0,0,1,5.82.68,16.35,16.35,0,0,1,5.26,2.63c.39.33.77.69,1.14,1.05a20.48,20.48,0,0,1,6.09,14.61,20.89,20.89,0,0,1-1.64,8.12,21.67,21.67,0,0,1-4.45,6.74,20.38,20.38,0,0,1-14.69,6.31c-2.14,0-9.37-.48-12.57-6.61a8.52,8.52,0,0,1,3.43-11.6,6.83,6.83,0,0,1,9.24,2.7A5.33,5.33,0,0,1,40,38.33a4.26,4.26,0,0,1-5.76-1.68A3.26,3.26,0,0,1,34,34.13a3.33,3.33,0,0,1,1.6-2,2.61,2.61,0,0,1,3.52,1,2,2,0,0,1-.8,2.71,1.56,1.56,0,0,1-1.94-.37,2.23,2.23,0,0,1-.24-.4c-.17-.39-.82-.19-.64.2a1.82,1.82,0,0,0,.16.31,2.26,2.26,0,0,0,1,.93h0a2.19,2.19,0,0,0,1.93-.09,2.64,2.64,0,0,0,1.06-3.6,3.25,3.25,0,0,0-4.42-1.29A3.94,3.94,0,0,0,33.68,37a4.92,4.92,0,0,0,6.65,1.94,6,6,0,0,0,2.42-8.16,7.51,7.51,0,0,0-10.15-3,9.19,9.19,0,0,0-4.45,5.49,9.09,9.09,0,0,0,.75,7c3.37,6.45,10.93,7,13.16,7a21,21,0,0,0,15.16-6.51,22.08,22.08,0,0,0,4.59-6.95,21.58,21.58,0,0,0,1.69-8.37,21.09,21.09,0,0,0-6.28-15.07"/>
  </g>
</svg>
