<svg xmlns="http://www.w3.org/2000/svg" width="133" height="148" viewBox="0 0 133 148">
  <defs>
    <style>
      .a {
        fill: #AFBF36;
      }
    </style>
  </defs>
  <title>domenica-fiore-icon</title>
  <path class="a" d="M112.77,31.44A67.11,67.11,0,0,0,65.13,11.81q-3.16,0-6.3.29A68.39,68.39,0,0,0,43.6,6.62l-.1-.11a28,28,0,0,0-3.71-3.15A16.26,16.26,0,0,0,32.67.72C31.82.61,31.06.54,30.35.51h-.63a27.35,27.35,0,0,0-5.84.77l-.51.1h0a5.69,5.69,0,0,0-1.84.55.19.19,0,0,0-.1.13.2.2,0,0,0,0,.17,6,6,0,0,0,1.35,1.35l.43.35a24.88,24.88,0,0,0,5.31,3.74c.64.32,1.34.61,2.14.92a17.07,17.07,0,0,0,6,1.15c.51,0,1,0,1.54-.08a27,27,0,0,0,4.77-1l.09,0,.09,0A67,67,0,0,1,55,12.57,67.31,67.31,0,0,0,12.15,37.44h0a24.74,24.74,0,0,0-4.07,2.18A15.31,15.31,0,0,0,3.28,45c-.38.7-.71,1.35-1,2A24.1,24.1,0,0,0,.76,52.88l-.09.51a5.77,5.77,0,0,0-.14,1.8.21.21,0,0,0,.21.18h0a5.49,5.49,0,0,0,1.65-.72h0a5.05,5.05,0,0,1,.45-.25A24.09,24.09,0,0,0,8,51a20.81,20.81,0,0,0,1.55-1.56,15.22,15.22,0,0,0,3.52-6.24,25.07,25.07,0,0,0,.75-4.54v0A65.69,65.69,0,0,1,90.77,19.06a58.74,58.74,0,0,0-18-1.94A66.82,66.82,0,0,0,53.43,21q-2,.7-4,1.53h0l-1.41,0a26.22,26.22,0,0,0-3.72.24,17.13,17.13,0,0,0-7.38,3.05c-.74.52-1.37,1-1.94,1.49a26.88,26.88,0,0,0-4.43,5.2l-.34.47a5.94,5.94,0,0,0-1,1.73.25.25,0,0,0,0,.17.26.26,0,0,0,.14.11,4.24,4.24,0,0,0,1.08.12c.31,0,.62,0,.92,0h0l.58,0a26.44,26.44,0,0,0,6.79-.91A24.28,24.28,0,0,0,41,33.23a17,17,0,0,0,6.56-4.54,28.72,28.72,0,0,0,2.94-4.18c.06-.09.11-.18.17-.29,1.13-.47,2.27-.9,3.42-1.31A64.41,64.41,0,0,1,72.88,19.2a56.29,56.29,0,0,1,18.31,2.14,51.25,51.25,0,0,1,16.52,8.25c1.22,1.05,2.42,2.16,3.58,3.32a64.37,64.37,0,0,1,19.12,45.93,65.93,65.93,0,0,1-5.13,25.54,67.73,67.73,0,0,1-14,21.22,64,64,0,0,1-46.15,19.82c-6.73,0-29.46-1.49-39.53-20.77a26.84,26.84,0,0,1,10.79-36.5,21.48,21.48,0,0,1,29.05,8.5,16.81,16.81,0,0,1-6.75,22.85,13.39,13.39,0,0,1-18.09-5.29,10.38,10.38,0,0,1,4.18-14.12,8.12,8.12,0,0,1,6.2-.66,8,8,0,0,1,4.86,3.9,6.28,6.28,0,0,1-2.51,8.53,4.89,4.89,0,0,1-6.09-1.19,6.27,6.27,0,0,1-.75-1.25c-.55-1.24-2.59-.61-2,.64a7.85,7.85,0,0,0,.51,1,7,7,0,0,0,3.24,2.93l.06,0h0a6.94,6.94,0,0,0,6-.28,8.36,8.36,0,0,0,3.36-11.35,10.28,10.28,0,0,0-13.9-4.06,12.45,12.45,0,0,0-5,16.93,15.49,15.49,0,0,0,20.93,6.12,18.9,18.9,0,0,0,7.58-25.67,23.6,23.6,0,0,0-31.9-9.32,28.89,28.89,0,0,0-11.62,39.29c10.6,20.3,34.34,21.88,41.37,21.88A66.09,66.09,0,0,0,112.78,127a69.85,69.85,0,0,0,14.43-21.86,68.11,68.11,0,0,0,5.29-26.34,66.45,66.45,0,0,0-19.73-47.4"/>
</svg>
