<svg xmlns="http://www.w3.org/2000/svg" xmlns:xlink="http://www.w3.org/1999/xlink" width="21" height="10" viewBox="0 0 21 10">
  <defs>
    <style>
      .a {
        fill: none;
      }

      .b {
        fill: #fff;
      }

      .c {
        clip-path: url(#a);
      }

      .d {
        fill: #ec1c24;
      }
    </style>
    <clipPath id="a">
      <rect class="a" width="21" height="10"/>
    </clipPath>
  </defs>
  <title>language-icon-english</title>
  <g>
    <rect class="b" width="21" height="10"/>
    <g class="c">
      <path class="d" d="M10.64,9.33l0-2.06a.13.13,0,0,1,0-.07s0,0,.08,0c.7.09,1.37.18,2.07.25l-.19-.6V6.74s0,0,0-.07L14.74,5l-.48-.21s-.08,0-.08-.09,0-.11,0-.14c.12-.41.22-.78.34-1.21l-1.11.23s-.12,0-.17,0a.17.17,0,0,1-.12-.07c-.05-.18-.1-.32-.17-.53L12,4a.25.25,0,0,1-.22,0,.22.22,0,0,1-.1-.21c.15-.69.29-1.37.41-2.08l-.65.32a.88.88,0,0,1-.14,0c-.1,0-.1-.07-.12-.09-.24-.44-.51-.87-.75-1.33-.24.43-.5.87-.74,1.33,0,0,0,.07-.13.09s-.12,0-.14,0l-.65-.32c.14.68.29,1.37.41,2.08a.17.17,0,0,1-.1.21.19.19,0,0,1-.21,0l-1-1a3.56,3.56,0,0,1-.17.53.24.24,0,0,1-.09.09s-.15,0-.17,0L6.38,3.37c.12.41.22.78.34,1.22a.9.9,0,0,1,0,.13c0,.1-.07.1-.07.1L6.19,5,8.31,6.7a.1.1,0,0,1,0,.07v.06l-.19.6c.7-.09,1.37-.18,2.07-.25a.1.1,0,0,1,.07,0s.05,0,.05.07l-.05,2.07h.36Z"/>
    </g>
    <rect class="d" x="15.77" width="5.23" height="10"/>
    <rect class="d" width="5.23" height="10"/>
  </g>
</svg>
