<svg xmlns="http://www.w3.org/2000/svg" width="21" height="20" viewBox="0 0 21 20">
  <defs>
    <style>
      .a {
        fill: #000;
      }
    </style>
  </defs>
  <title>nav-basket</title>
  <g>
    <path class="a" d="M16.23,19.5H4.77a1.65,1.65,0,0,1-1.58-1.16L.57,9.74A1.65,1.65,0,0,1,2.16,7.62H18.85a1.65,1.65,0,0,1,1.58,2.12l-2.62,8.6a1.64,1.64,0,0,1-1.58,1.16"/>
    <path class="a" d="M14.73,6.13A.73.73,0,0,1,14,5.41a3.49,3.49,0,0,0-7,0,.74.74,0,0,1-1.47,0,5,5,0,0,1,9.92,0,.73.73,0,0,1-.73.72"/>
  </g>
</svg>
