<svg xmlns="http://www.w3.org/2000/svg" width="102" height="34" viewBox="0 0 102 34">
  <defs>
    <style>
      .a {
        fill: #c1d52f;
      }
    </style>
  </defs>
  <title>ooc-decorative-leaves</title>
  <path class="a" d="M100.75,21.05a15.53,15.53,0,0,0-7.67-6.11,8.7,8.7,0,0,0,3.81-1.49,11.79,11.79,0,0,0,1-.75A13.66,13.66,0,0,0,100.27,10l.18-.24a3.16,3.16,0,0,0,.55-.88s0-.06,0-.06a3.14,3.14,0,0,0-1-.08l-.3,0a13.28,13.28,0,0,0-3.51.37,11.23,11.23,0,0,0-1.2.4,8.63,8.63,0,0,0-3.44,2.27A13.77,13.77,0,0,0,89.91,14a26.82,26.82,0,0,0-12.9.53A13.8,13.8,0,0,0,78.29,13c.3-.43.6-.92.92-1.48A12.21,12.21,0,0,0,80.83,6a19.64,19.64,0,0,0-.21-3.67c0-.08,0-.17,0-.26a3,3,0,0,1-.06-.72s0-.31-.15-.37-.32.11-.36.15a2.53,2.53,0,0,1-.55.46l-.21.14A20.65,20.65,0,0,0,76.5,4.17a12.14,12.14,0,0,0-2.74,5c-.17.62-.31,1.17-.41,1.69A20.2,20.2,0,0,0,73.2,16a19.43,19.43,0,0,0-2.38,1.32c-3.17,2.1-6.29,4.41-9.57,6.38A21.77,21.77,0,0,0,63.16,21a13.68,13.68,0,0,0,1.76-6.18,19.44,19.44,0,0,0,0-2,21.85,21.85,0,0,0-1-5.44l-.12-.44a5.08,5.08,0,0,0-.57-1.51s-.07,0-.11,0a4.68,4.68,0,0,0-1,1.21c-.1.13-.18.26-.28.38A22,22,0,0,0,59,11.74a19.63,19.63,0,0,0-.63,1.88A13.75,13.75,0,0,0,57.93,20a22.62,22.62,0,0,0,1.14,4c0,.09.07.18.11.28a3.06,3.06,0,0,1,.17.48c.07.21-3.54,1.69-3.89,1.83a18.62,18.62,0,0,1-4.3,1.27,5.72,5.72,0,0,1-2.48-.42c-.71-.21-1.41-.46-2.1-.73s-1.36-.56-2-.87a16.84,16.84,0,0,1-1.91-1,3.06,3.06,0,0,1,.17-.48c0-.1.08-.19.11-.28a22.62,22.62,0,0,0,1.14-4,13.75,13.75,0,0,0-.44-6.41A19.63,19.63,0,0,0,43,11.85a22,22,0,0,0-2.82-4.74c-.1-.12-.18-.25-.28-.38a4.68,4.68,0,0,0-1-1.21s-.09,0-.11,0A5.08,5.08,0,0,0,38.19,7l-.12.44a21.85,21.85,0,0,0-1,5.44,19.44,19.44,0,0,0,0,2,13.68,13.68,0,0,0,1.76,6.18,21.77,21.77,0,0,0,1.91,2.71c-3.28-2-6.4-4.28-9.57-6.38a20.91,20.91,0,0,0-2.38-1.33A20.12,20.12,0,0,0,28.65,11c-.1-.52-.24-1.07-.41-1.69a12.14,12.14,0,0,0-2.74-5,20.65,20.65,0,0,0-2.75-2.41l-.21-.14A2.53,2.53,0,0,1,22,1.27s-.22-.2-.36-.15-.15.31-.15.38a3,3,0,0,1-.06.71c0,.09,0,.18,0,.26a19.64,19.64,0,0,0-.21,3.67,12.21,12.21,0,0,0,1.62,5.46c.32.56.62,1.05.92,1.48A13.8,13.8,0,0,0,25,14.64a26.82,26.82,0,0,0-12.9-.53A13.77,13.77,0,0,0,10.51,12,8.63,8.63,0,0,0,7.07,9.68a11.23,11.23,0,0,0-1.2-.4,13.28,13.28,0,0,0-3.51-.37l-.3,0A3.14,3.14,0,0,0,1,9S1,9,1,9a3.16,3.16,0,0,0,.55.88l.18.24a13.66,13.66,0,0,0,2.36,2.66,11.79,11.79,0,0,0,1,.75,8.7,8.7,0,0,0,3.81,1.49,15.53,15.53,0,0,0-7.67,6.11c5-3.94,11-6.29,17.08-5.75a12.56,12.56,0,0,0-2.13,1.14c-.34.24-.68.5-1.07.82a10.22,10.22,0,0,0-2.79,3.47,16.8,16.8,0,0,0-1,2.68c0,.07,0,.12-.06.21a1.68,1.68,0,0,1-.18.52s-.08.22,0,.3.25,0,.29,0a1.93,1.93,0,0,1,.51-.19l.2-.05a15.8,15.8,0,0,0,2.6-1,10.15,10.15,0,0,0,3.38-2.83c.31-.4.58-.76.81-1.11a17.26,17.26,0,0,0,1.69-3.64,19.43,19.43,0,0,1,2.63.73C27.53,18,31.8,21.31,35.79,23.6c.37.22.75.43,1.13.64a.21.21,0,0,1-.08,0,18.34,18.34,0,0,0-4.8.62c-.51.15-1,.34-1.63.57a12,12,0,0,0-4.65,3.22,20.31,20.31,0,0,0-2.12,3l-.13.23a2.27,2.27,0,0,1-.4.59s-.17.25-.11.38.33.13.38.13a2.09,2.09,0,0,1,.71,0l.26,0A19.69,19.69,0,0,0,28,32.85a12.08,12.08,0,0,0,5.22-2.14c.52-.37,1-.72,1.37-1.06a18.92,18.92,0,0,0,3.16-3.71l.25-.33c.14-.18.27-.37.39-.56a74.15,74.15,0,0,0,9.3,4.13,10.26,10.26,0,0,0,2.16.69c2.06.31,4.08-.55,6-1.27a59.15,59.15,0,0,0,5.92-2.66c.64-.32,1.27-.66,1.9-1,.12.19.25.38.39.56l.25.33a18.92,18.92,0,0,0,3.16,3.71c.4.35.85.69,1.37,1.06A12.08,12.08,0,0,0,74,32.74a19.69,19.69,0,0,0,3.63.12l.26,0a2.88,2.88,0,0,1,.72,0s.3,0,.37-.12-.09-.33-.11-.38a2.27,2.27,0,0,1-.4-.59l-.13-.23a20.31,20.31,0,0,0-2.12-3,12,12,0,0,0-4.65-3.22c-.59-.23-1.12-.42-1.63-.57a18.34,18.34,0,0,0-4.8-.62.21.21,0,0,1-.08,0c.38-.21.76-.42,1.13-.64,4-2.29,8.26-5.58,12.58-7.13a19.17,19.17,0,0,1,2.64-.73,16.73,16.73,0,0,0,1.68,3.64c.23.35.5.71.81,1.11a10.15,10.15,0,0,0,3.38,2.83,15.8,15.8,0,0,0,2.6,1l.2.05a2.31,2.31,0,0,1,.52.19s.21.08.28,0,0-.26,0-.3a1.68,1.68,0,0,1-.18-.52,1.67,1.67,0,0,0-.06-.2,16.59,16.59,0,0,0-1-2.69,10.22,10.22,0,0,0-2.79-3.47c-.39-.32-.73-.58-1.07-.82a12.56,12.56,0,0,0-2.13-1.14C89.78,14.76,95.76,17.11,100.75,21.05Z"/>
</svg>
